<?xml version="1.0" encoding="UTF-8" standalone="no"?>
<!-- Created with Inkscape (http://www.inkscape.org/) -->

<svg
   xmlns:dc="http://purl.org/dc/elements/1.1/"
   xmlns:cc="http://creativecommons.org/ns#"
   xmlns:rdf="http://www.w3.org/1999/02/22-rdf-syntax-ns#"
   xmlns:svg="http://www.w3.org/2000/svg"
   xmlns="http://www.w3.org/2000/svg"
   xmlns:xlink="http://www.w3.org/1999/xlink"
   xmlns:sodipodi="http://sodipodi.sourceforge.net/DTD/sodipodi-0.dtd"
   xmlns:inkscape="http://www.inkscape.org/namespaces/inkscape"
   width="1138.2117"
   height="333.13834"
   viewBox="0 0 301.15183 88.142854"
   version="1.1"
   id="svg10052"
   inkscape:export-filename="/media/epineda/DISC PINI/imatges/youtube/logo_art_channel.png"
   inkscape:export-xdpi="96"
   inkscape:export-ydpi="96"
   inkscape:version="0.92.5 (2060ec1f9f, 2020-04-08)"
   sodipodi:docname="logo.svg">
  <defs
     id="defs10046">
    <linearGradient
       inkscape:collect="always"
       id="linearGradient10624">
      <stop
         style="stop-color:#5c258d;stop-opacity:1"
         offset="0"
         id="stop10620" />
      <stop
         style="stop-color:#4389a2;stop-opacity:1"
         offset="1"
         id="stop10622" />
    </linearGradient>
    <linearGradient
       inkscape:collect="always"
       id="linearGradient10607">
      <stop
         style="stop-color:#5c258d;stop-opacity:1"
         offset="0"
         id="stop10603" />
      <stop
         style="stop-color:#4389a2;stop-opacity:1"
         offset="1"
         id="stop10605" />
    </linearGradient>
    <linearGradient
       inkscape:collect="always"
       xlink:href="#linearGradient10607"
       id="linearGradient10609"
       x1="213.17857"
       y1="104.98808"
       x2="301.625"
       y2="189.65474"
       gradientUnits="userSpaceOnUse"
       gradientTransform="matrix(0.41577798,0,0,0.41577798,125.67475,50.432297)" />
    <linearGradient
       inkscape:collect="always"
       xlink:href="#linearGradient10624"
       id="linearGradient10626"
       x1="240.39285"
       y1="142.02974"
       x2="368.1488"
       y2="159.41666"
       gradientUnits="userSpaceOnUse"
       gradientTransform="translate(86.415142,-36.673274)" />
    <linearGradient
       inkscape:collect="always"
       xlink:href="#linearGradient10624"
       id="linearGradient893"
       gradientUnits="userSpaceOnUse"
       gradientTransform="translate(86.415142,-36.673274)"
       x1="240.39285"
       y1="142.02974"
       x2="368.1488"
       y2="159.41666" />
    <linearGradient
       inkscape:collect="always"
       xlink:href="#linearGradient10624"
       id="linearGradient895"
       gradientUnits="userSpaceOnUse"
       gradientTransform="translate(86.415142,-36.673274)"
       x1="240.39285"
       y1="142.02974"
       x2="368.1488"
       y2="159.41666" />
    <linearGradient
       inkscape:collect="always"
       xlink:href="#linearGradient10624"
       id="linearGradient897"
       gradientUnits="userSpaceOnUse"
       gradientTransform="translate(86.415142,-36.673274)"
       x1="240.39285"
       y1="142.02974"
       x2="368.1488"
       y2="159.41666" />
    <linearGradient
       inkscape:collect="always"
       xlink:href="#linearGradient10624"
       id="linearGradient899"
       gradientUnits="userSpaceOnUse"
       gradientTransform="translate(86.415142,-36.673274)"
       x1="240.39285"
       y1="142.02974"
       x2="368.1488"
       y2="159.41666" />
    <linearGradient
       inkscape:collect="always"
       xlink:href="#linearGradient10624"
       id="linearGradient901"
       gradientUnits="userSpaceOnUse"
       gradientTransform="translate(86.415142,-36.673274)"
       x1="240.39285"
       y1="142.02974"
       x2="368.1488"
       y2="159.41666" />
    <linearGradient
       inkscape:collect="always"
       xlink:href="#linearGradient10624"
       id="linearGradient903"
       gradientUnits="userSpaceOnUse"
       gradientTransform="translate(86.415142,-36.673274)"
       x1="240.39285"
       y1="142.02974"
       x2="368.1488"
       y2="159.41666" />
    <linearGradient
       inkscape:collect="always"
       xlink:href="#linearGradient10624"
       id="linearGradient905"
       gradientUnits="userSpaceOnUse"
       gradientTransform="translate(86.415142,-36.673274)"
       x1="240.39285"
       y1="142.02974"
       x2="368.1488"
       y2="159.41666" />
    <linearGradient
       inkscape:collect="always"
       xlink:href="#linearGradient10624"
       id="linearGradient907"
       gradientUnits="userSpaceOnUse"
       gradientTransform="translate(86.415142,-36.673274)"
       x1="240.39285"
       y1="142.02974"
       x2="368.1488"
       y2="159.41666" />
    <linearGradient
       inkscape:collect="always"
       xlink:href="#linearGradient10624"
       id="linearGradient909"
       gradientUnits="userSpaceOnUse"
       gradientTransform="translate(86.415142,-36.673274)"
       x1="240.39285"
       y1="142.02974"
       x2="368.1488"
       y2="159.41666" />
    <linearGradient
       inkscape:collect="always"
       xlink:href="#linearGradient10624"
       id="linearGradient911"
       gradientUnits="userSpaceOnUse"
       gradientTransform="translate(86.415142,-36.673274)"
       x1="240.39285"
       y1="142.02974"
       x2="368.1488"
       y2="159.41666" />
    <linearGradient
       inkscape:collect="always"
       xlink:href="#linearGradient10624"
       id="linearGradient913"
       gradientUnits="userSpaceOnUse"
       gradientTransform="translate(86.415142,-36.673274)"
       x1="240.39285"
       y1="142.02974"
       x2="368.1488"
       y2="159.41666" />
  </defs>
  <sodipodi:namedview
     id="base"
     pagecolor="#ffffff"
     bordercolor="#666666"
     borderopacity="1.0"
     inkscape:pageopacity="0"
     inkscape:pageshadow="2"
     inkscape:zoom="0.35"
     inkscape:cx="10.534407"
     inkscape:cy="15.714315"
     inkscape:document-units="mm"
     inkscape:current-layer="layer1"
     showgrid="false"
     units="px"
     inkscape:window-width="1920"
     inkscape:window-height="1025"
     inkscape:window-x="0"
     inkscape:window-y="27"
     inkscape:window-maximized="1"
     inkscape:pagecheckerboard="false"
     fit-margin-top="10"
     fit-margin-left="10"
     fit-margin-right="10"
     fit-margin-bottom="10" />
  <metadata
     id="metadata10049">
    <rdf:RDF>
      <cc:Work
         rdf:about="">
        <dc:format>image/svg+xml</dc:format>
        <dc:type
           rdf:resource="http://purl.org/dc/dcmitype/StillImage" />
        <dc:title></dc:title>
      </cc:Work>
    </rdf:RDF>
  </metadata>
  <g
     inkscape:label="Capa 1"
     inkscape:groupmode="layer"
     id="layer1"
     transform="translate(-188.09076,-64.848204)">
    <rect
       style="opacity:1;fill:#c0c0c0;fill-opacity:0;stroke:none;stroke-width:10.89999962;stroke-linecap:round;stroke-miterlimit:4;stroke-dasharray:none;stroke-dashoffset:0;stroke-opacity:1"
       id="rect10628"
       width="354.54166"
       height="68.035713"
       x="-115.66071"
       y="-129.35716" />
    <g
       id="g891">
      <g
         id="text10618"
         style="font-style:normal;font-variant:normal;font-weight:normal;font-stretch:normal;font-size:72.21495056px;line-height:1000%;font-family:Carolinea;-inkscape-font-specification:'Carolinea, Normal';font-variant-ligatures:normal;font-variant-caps:normal;font-variant-numeric:normal;font-feature-settings:normal;text-align:center;letter-spacing:0px;word-spacing:0px;writing-mode:lr-tb;text-anchor:middle;fill:url(#linearGradient10626);fill-opacity:1;stroke:none;stroke-width:1.20354486px;stroke-linecap:butt;stroke-linejoin:miter;stroke-opacity:1"
         aria-label="Enric Pineda">
        <path
           id="path851"
           style="font-style:normal;font-variant:normal;font-weight:normal;font-stretch:normal;font-size:72.21495056px;font-family:Carolinea;-inkscape-font-specification:'Carolinea, Normal';font-variant-ligatures:normal;font-variant-caps:normal;font-variant-numeric:normal;font-feature-settings:normal;text-align:center;writing-mode:lr-tb;text-anchor:middle;fill:url(#linearGradient893);fill-opacity:1;stroke-width:1.20354486px"
           d="m 326.78593,111.41449 q 0,0.0722 -0.0722,0.14443 0,0.0722 -0.0722,0.28886 -0.14443,0.14443 -0.21665,0.36107 0,0.14443 -0.14443,0.36108 -0.14443,0.28886 -0.28886,0.57772 -0.0722,0.21664 -0.14443,0.36107 -0.14443,0.36108 -0.28886,0.72215 -0.0722,0.28886 -0.21664,0.64994 -0.14443,0.43329 -0.28886,0.93879 -0.0722,0.43329 -0.28886,0.9388 -0.14443,0.43329 -0.43329,0.86658 -0.21665,0.43329 -0.36108,0.86658 -0.36107,0.93879 -0.79436,1.51651 -0.36107,0.57772 -0.43329,0.72215 -0.28886,0.57772 -0.5055,1.01101 -0.21665,0.43329 -0.57772,1.01101 -0.36108,0.43329 -0.86658,1.08322 -0.50551,0.57772 -1.15544,1.15544 -0.36108,0.36108 -0.72215,0.72215 -0.36108,0.28886 -0.72215,0.64994 -1.4443,1.22765 -2.8886,2.09423 -1.4443,0.86658 -2.59974,0.72215 -2.23866,-0.21665 -3.89961,-1.15544 -1.08322,-0.50551 -2.09423,-1.51651 -1.01101,-0.86658 -1.66094,-2.02202 -0.64994,-1.15544 -1.01101,-2.45531 -0.43329,-1.58873 -0.43329,-3.46632 0,-1.01101 0.36107,-1.73316 0.28886,-0.79436 0.57772,-1.80537 0.36108,-1.4443 1.01101,-2.16645 0.72215,-0.79436 1.58873,-1.87759 0.57772,-0.72215 1.01101,-1.15544 0.43329,-0.43329 0.79436,-0.72215 0.36108,-0.36107 0.64994,-0.57772 0.36107,-0.28886 0.72215,-0.72215 0.28886,-0.28886 0,-0.64993 -0.28886,-0.36108 -0.79437,-0.79437 -0.43329,-0.5055 -1.011,-1.01101 -0.50551,-0.5055 -0.64994,-1.011 -0.21664,-0.57772 -0.43329,-1.01101 -0.21664,-0.50551 -0.21664,-1.08323 -0.0722,-0.57772 0.0722,-1.29987 0.14443,-0.72215 0.28886,-1.299866 0.14443,-0.86658 0.50551,-1.516514 0.28886,-0.57772 0.72214,-1.15544 0.43329,-0.649934 1.01101,-1.227654 0.36108,-0.361074 0.72215,-0.722149 0.43329,-0.361075 0.79437,-0.72215 1.29987,-1.083224 2.45531,-1.733159 0.57772,-0.361074 1.22765,-0.649934 0.64994,-0.28886 1.22765,-0.43329 1.66095,-0.577719 2.96082,-0.216645 0.28886,0.07221 0.57772,0.07221 0.28886,-0.07221 0.79436,0.07221 0.64994,0.14443 1.01101,0.505505 0.43329,0.28886 0.57772,1.011009 0.0722,0.216645 0,0.57772 0,0.28886 0,0.649934 -0.14443,0.14443 -0.21664,0.794365 0,0.649934 -0.14443,0.794364 -0.28886,0.28886 -0.72215,-0.216645 -0.14443,-0.07221 -0.21665,-0.144429 0,-0.07221 -0.14443,-0.14443 -0.14443,-0.14443 -0.21664,-0.14443 -0.21665,-0.216645 -0.36108,-0.216645 -0.43329,-0.14443 -0.79436,0 -0.36108,0 -0.64994,0.07221 -0.28886,0.07221 -0.57772,0.216645 -0.36107,0.14443 -0.79436,0.361074 -0.36108,0.216645 -0.72215,0.43329 -0.43329,0.361075 -0.86658,0.505505 -0.28886,0.216645 -0.64993,0.433289 -0.28886,0.14443 -0.64994,0.361075 -0.79436,0.361075 -1.29987,0.86658 -0.72215,0.577719 -1.22765,1.516514 -0.14443,0.288859 -0.43329,0.722151 -0.28886,0.36108 -0.36108,0.72215 -0.14443,0.36108 -0.0722,0.72215 0.14443,0.36108 0.14443,0.79437 0.0722,1.37208 0.86658,1.9498 0.79436,0.57772 1.22765,0.5055 0.28886,-0.0722 0.72215,-0.43328 0.50551,-0.36108 1.08323,-0.57772 1.29986,-0.57772 2.16644,-1.15544 0.86658,-0.57772 1.51652,-0.50551 0.5055,0.0722 0.72215,0.14443 0.21664,0 0.57772,0.28886 0.14443,0.14443 0.21664,0.43329 0.14443,0.21665 0.50551,0.36108 0.72215,0.21664 0.86658,0.5055 0.14443,0.21665 0.5055,0.79436 -1.22765,0.43329 -2.02202,1.15544 -0.79436,0.64994 -1.87759,1.15544 -0.79436,0.43329 -1.58873,1.01101 -0.72214,0.57772 -1.58872,1.15543 -0.72215,0.50552 -1.66095,1.01101 -0.86658,0.50551 -1.51651,1.15544 -0.50551,0.50551 -0.79437,1.01101 -0.21664,0.5055 -0.64993,1.08322 -0.21665,0.28886 -0.36108,0.57772 -0.14443,0.28886 -0.28886,0.57772 -0.14443,0.36108 -0.43329,0.57772 -0.21664,0.21665 -0.36107,0.50551 -0.5055,0.93879 -0.79436,1.9498 -0.28886,0.9388 -0.28886,1.9498 -0.14443,1.01101 0.21664,2.02202 0.14443,0.72215 0.43329,1.4443 0.28886,0.72215 0.79436,1.4443 0.50551,0.72215 2.59974,0 0.50551,-0.14443 1.08323,-0.14443 0.64993,0 1.22765,-0.28886 0.57772,-0.36107 1.15544,-0.64993 0.57772,-0.28886 1.15544,-0.64994 0.57772,-0.36107 1.01101,-1.08322 0.5055,-0.72215 1.01101,-1.08323 1.73316,-1.22765 2.31088,-2.09423 0.14443,-0.21664 0.64993,-0.64993 0.50551,-0.43329 0.86658,-1.15544 0.14443,-0.36108 0.28886,-0.64994 0.21665,-0.28886 0.43329,-0.64993 0.14443,-0.36108 0.28886,-0.64994 0.21664,-0.36107 0.43329,-0.72215 0.21664,-0.36107 0.21664,-0.79436 0.0722,-0.43329 0.28886,-0.79437 0.14443,-0.14443 0.36108,-0.64993 0.21664,-0.57772 0.36107,-0.93879 0.21665,-0.28886 0.21665,-0.28886 0.0722,0 0.0722,0 0.0722,-0.0722 0.21665,0 0.28886,0.28886 0.36107,0.28886 0.14443,0 0.50551,0.21664 0.28886,0.14443 0.28886,0.14443 z"
           inkscape:connector-curvature="0" />
        <path
           id="path853"
           style="font-style:normal;font-variant:normal;font-weight:normal;font-stretch:normal;font-size:72.21495056px;font-family:Carolinea;-inkscape-font-specification:'Carolinea, Normal';font-variant-ligatures:normal;font-variant-caps:normal;font-variant-numeric:normal;font-feature-settings:normal;text-align:center;writing-mode:lr-tb;text-anchor:middle;fill:url(#linearGradient895);fill-opacity:1;stroke-width:1.20354486px"
           d="m 344.11741,111.55892 q 0,0.14443 0,0.28886 0.0722,0.0722 0,0.21665 -0.14443,0.43328 -0.14443,0.64993 -0.14443,0.57772 -0.43329,1.15544 -0.21664,0.5055 -0.36107,1.08322 -0.14443,0.43329 -0.43329,0.9388 -0.21665,0.5055 -0.28886,0.93879 -0.0722,0.28886 -0.21665,0.57772 -0.0722,0.21665 -0.14443,0.50551 -0.14443,0.43329 -0.21664,1.15544 -0.0722,0.64993 -0.21665,1.08322 0,0.14443 -0.28886,0.79436 -0.21664,0.64994 -0.5055,1.4443 -0.28886,0.72215 -0.57772,1.4443 -0.28886,0.64994 -0.36108,0.86658 -0.21664,0.43329 -0.36107,0.86658 -0.0722,0.43329 -0.28886,0.79437 -0.36107,0.5055 -0.36107,0.86657 0,0.36108 -0.50551,0.79437 -0.28886,0.36107 -0.57772,0.93879 -0.28886,0.57772 -0.64993,0.72215 -0.36108,0.14443 -1.01101,-0.21664 -0.64994,-0.36108 -1.15544,-0.43329 -0.28886,0 -1.01101,-0.64994 -0.64994,-0.57772 -0.72215,-0.72215 -0.14443,-0.21664 -0.14443,-0.64993 0.0722,-0.36107 -0.14443,-0.72215 -0.21665,-0.5055 -0.0722,-0.72215 0.14443,-0.28886 0.14443,-0.86658 -0.0722,-0.14443 -0.0722,-0.93879 v -0.79437 q 0.0722,-0.21664 0.0722,-0.64993 0,-0.14443 -0.0722,-0.28886 0,-0.21665 0.0722,-0.36108 0,-0.43329 0.0722,-0.86658 0.14443,-0.5055 0.28886,-1.01101 0,-0.21664 0,-0.43328 0.0722,-0.21665 0.0722,-0.43329 0,-0.0722 0.0722,-0.50551 0.14443,-0.5055 0.21664,-1.01101 0.14443,-0.57772 0.21665,-1.01101 0.14443,-0.43329 0.14443,-0.57772 0.0722,-0.28886 0,-0.43329 0,-0.21664 0.0722,-0.5055 0.0722,-0.14443 0.14443,-0.36108 0.0722,-0.28886 0.0722,-0.43329 0.0722,-0.21664 0,-0.43329 -0.0722,-0.21664 -0.0722,-0.43329 0.0722,-0.14443 0.0722,-0.28886 0,-0.21664 0.0722,-0.36107 0.0722,-0.21665 0.0722,-0.43329 0,-0.28886 0.0722,-0.43329 0.0722,-0.14443 0.0722,-0.28886 0,-0.14443 0.0722,-0.28886 0.0722,-0.28886 -0.14443,-0.5055 -0.21664,-0.21665 -0.14443,-0.36108 -0.28886,0.14443 -0.57772,0.36108 -0.21664,0.14443 -0.43329,0.28886 -0.28886,0.14443 -0.5055,0.36107 -0.21665,0.14443 -0.43329,0.28886 -0.36108,0.36108 -0.64994,0.72215 -0.21664,0.36107 -0.5055,0.72215 -0.14443,0.14443 -0.28886,0.28886 -0.14443,0.0722 -0.28886,0.21664 -0.14443,0.21665 -0.21664,0.43329 -0.0722,0.14443 -0.21665,0.36108 -0.21664,0.36107 -0.5055,0.72215 -0.21665,0.36107 -0.50551,0.79436 -0.21664,0.28886 -0.57772,1.15544 -0.28886,0.86658 -0.57772,1.58873 l -0.28886,1.9498 q -0.0722,0.21665 -0.0722,0.57772 0,0.28886 -0.0722,0.9388 -0.0722,0.43329 -0.21664,1.29987 -0.14443,0.86658 -0.0722,1.08322 -0.0722,0.14443 -0.21664,0 -0.0722,-0.14443 -0.28886,0 -0.21665,0.14443 -0.28886,0 -0.0722,-0.14443 -0.36108,-0.0722 -0.43329,0.14443 -1.01101,0 -0.14443,-0.0722 -0.36107,-0.0722 -0.21665,0 -0.36108,-0.0722 -0.28885,-0.21665 -0.5055,-0.21665 -0.21664,-0.0722 -0.36107,-0.43329 -0.14443,-0.28886 -0.0722,-0.79436 0,-0.57772 0,-0.9388 0,-0.79436 0.0722,-1.4443 0.0722,-0.72215 0.21664,-2.16644 0,-0.28886 0.0722,-0.72215 0,-0.50551 0.0722,-1.08323 v -0.5055 q 0.0722,-0.79437 0.21665,-1.37209 v -0.21664 -0.0722 -0.21664 q 0,-0.0722 0.0722,-0.28886 0.14443,-0.21665 0.14443,-0.57772 0,-0.79437 0.0722,-1.37208 0.14443,-0.57772 0.21665,-1.08323 0.14443,-0.57772 0.21664,-1.15544 0.14443,-0.64993 0.21665,-1.58873 v -0.43329 q 0,-0.5055 0.57772,-0.57772 0.21664,-0.0722 0.43329,-0.14443 0.21664,-0.14443 0.5055,-0.21664 l 0.43329,0.0722 q 0.36108,0 0.57772,0 0.21665,0 0.64994,-0.0722 0.28886,0 0.72215,0.28886 0.43329,0.28886 0.36107,0.64993 -0.0722,0.14443 -0.0722,0.28886 -0.0722,0.50551 -0.14443,1.08323 0,0.57772 0.0722,1.08322 l -0.14443,0.64994 q 0,0.14443 -0.0722,0.36107 0,0.14443 0,0.28886 -0.0722,0.36108 -0.0722,0.72215 0.14443,-0.28886 0.28886,-0.43329 0.28886,-0.43329 0.50551,-0.64993 0.21664,-0.36108 0.36107,-0.43329 0.14443,-0.0722 0.36108,-0.43329 0.14443,-0.14443 0.28886,-0.28886 0.14443,-0.14443 0.28886,-0.28886 0.21664,-0.36108 0.5055,-0.50551 0.28886,-0.21664 0.5055,-0.5055 0.28886,-0.21665 0.72215,-0.64994 0.21665,-0.14443 0.36108,-0.28886 0.21664,-0.14443 0.36107,-0.28886 0.86658,-0.5055 1.01101,-0.79436 0.21665,-0.28886 1.22766,0 0.21664,0.0722 0.64993,0.14443 0.43329,0.0722 0.86658,0.21664 0.43329,0.0722 0.79437,0.21665 0.36107,0.14443 0.43329,0.36107 0.21664,0.50551 0.36107,0.79437 0.14443,0.21664 0.14443,0.43329 0.0722,0.14443 0,0.36107 0,0.21665 -0.14443,0.64994 l -0.21664,0.86658 q -0.0722,0.21664 0,0.43329 0.0722,0.14443 0,0.36107 -0.0722,0.14443 -0.0722,0.36108 0.0722,0.21664 0.0722,0.43329 -0.0722,0.21664 -0.14443,0.5055 0,0.21664 -0.0722,0.43329 -0.0722,0.36107 -0.0722,0.64993 0,0.28886 -0.0722,0.64994 -0.0722,0.36107 -0.14443,0.79436 0,0.36108 -0.0722,0.79437 0,0.0722 -0.14443,0.5055 -0.0722,0.43329 -0.14443,1.01101 -0.0722,0.50551 -0.21665,0.9388 -0.0722,0.43329 -0.0722,0.5055 0,0.14443 0,0.36108 0.0722,0.14443 0,0.28886 -0.0722,0.64993 -0.21665,1.37208 -0.14443,0.64993 -0.28886,1.22765 0,0.21665 -0.0722,0.43329 0,0.21665 0,0.36108 -0.0722,0.21664 -0.0722,0.43329 0,0.21664 -0.0722,0.43329 -0.0722,0.36107 -0.0722,0.64993 0,0.28886 -0.0722,0.57772 -0.0722,0.21665 -0.0722,0.14443 0.0722,-0.14443 0.0722,0.0722 -0.28886,0.57772 0.14443,0.57772 0.14443,0 0.0722,-0.0722 -0.0722,-0.14443 0.21665,-0.36107 0.28886,-0.14443 0.28886,-0.36108 0,-0.21664 0.21664,-0.43329 0.0722,-0.14443 0.0722,-0.14443 0,-0.0722 0.0722,-0.21664 0.14443,-0.21665 0.0722,-0.28886 -0.0722,-0.14443 0.0722,-0.28886 0.21665,-0.36108 0.28886,-0.50551 0.14443,-0.21664 0.28886,-0.57772 0.14443,-0.36107 0.28886,-0.64993 0.14443,-0.28886 0.28886,-0.64994 0.14443,-0.43329 0.36107,-0.86658 0.21665,-0.5055 0.36108,-0.93879 0.14443,-0.36107 0.28886,-0.93879 0.21664,-0.64994 0.28886,-1.01101 0.21664,-0.57772 0.43329,-1.01101 0.21664,-0.50551 0.36107,-1.01101 0.14443,-0.36108 0.28886,-0.79437 0.14443,-0.43329 0.28886,-0.72215 0.14443,-0.36107 0.21665,-0.64993 0.14443,-0.28886 0.28886,-0.57772 0.21664,-0.36108 0.28886,-0.72215 0.14443,-0.43329 0.28886,-0.57772 0.0722,0 0.21664,-0.0722 0.14443,-0.0722 0.28886,-0.0722 l 0.57772,0.21665 q 0.14443,0 0.14443,0.0722 z"
           inkscape:connector-curvature="0" />
        <path
           id="path855"
           style="font-style:normal;font-variant:normal;font-weight:normal;font-stretch:normal;font-size:72.21495056px;font-family:Carolinea;-inkscape-font-specification:'Carolinea, Normal';font-variant-ligatures:normal;font-variant-caps:normal;font-variant-numeric:normal;font-feature-settings:normal;text-align:center;writing-mode:lr-tb;text-anchor:middle;fill:url(#linearGradient897);fill-opacity:1;stroke-width:1.20354486px"
           d="m 357.98266,111.34228 q 0.0722,0.21664 0,0.5055 -0.0722,0.14443 -0.0722,0.28886 0,0.14443 -0.0722,0.28886 -0.14443,0.57772 -0.57772,1.51651 -0.43329,0.9388 -0.57772,1.51652 -0.14443,0.43329 -0.28886,0.86658 -0.14443,0.36107 -0.21664,0.79436 -0.0722,0.28886 -0.28886,0.57772 -0.14443,0.28886 -0.21664,0.57772 -0.0722,0.43329 -0.14443,0.86658 -0.0722,0.43329 -0.21665,0.86658 0,0.14443 -0.28886,0.79436 -0.21664,0.64994 -0.5055,1.4443 -0.21665,0.72215 -0.50551,1.4443 -0.21664,0.64994 -0.28886,0.86658 -0.14443,0.36108 -0.14443,0.86658 0,0.43329 -0.28886,0.79437 -0.14443,0.43329 -0.14443,0.5055 0,0.36107 -0.0722,0.64993 0,0.28886 -0.36108,0.64994 -0.36107,0.28886 -0.93879,0.79436 -0.50551,0.50551 -0.86658,0.64994 -0.36108,0.14443 -0.9388,-0.14443 -0.5055,-0.28886 -0.93879,-0.36108 -0.14443,0 -0.43329,-0.0722 -0.21664,-0.0722 -0.43329,-0.28886 -0.43329,-0.28886 -0.79436,-0.64994 -0.28886,-0.36107 -0.36108,-0.5055 -0.14443,-0.21665 -0.14443,-0.64993 0.0722,-0.36108 -0.0722,-0.72215 -0.28886,-0.50551 -0.14443,-0.72215 0.21664,-0.28886 0.21664,-0.86658 -0.14443,-0.28886 -0.14443,-0.9388 0,-0.5055 0.0722,-0.79436 0,-0.43329 0.0722,-0.64994 0,-0.14443 -0.0722,-0.28886 0,-0.21664 0,-0.36107 0.0722,-0.43329 0.14443,-0.86658 0.14443,-0.50551 0.21664,-1.01101 0.0722,-0.21664 0.0722,-0.43329 0,-0.21664 0.0722,-0.43329 0,-0.21664 0,-0.36107 0.0722,-0.21665 0.14443,-0.43329 0,-0.0722 0.0722,-0.79437 0.0722,-0.72215 0.14443,-1.58873 0.0722,-0.86658 0.14443,-1.58873 0.0722,-0.72215 0.0722,-0.86658 0.0722,-0.36107 0.0722,-0.79436 0.0722,-0.43329 0.14443,-0.79436 0.0722,-0.21665 0.0722,-0.72215 0.0722,-0.14443 0.0722,-0.28886 0,-0.21665 0.0722,-0.36108 0.14443,-0.57772 0.0722,-0.79436 0,-0.28886 0,-0.43329 0.0722,0 0.0722,-0.0722 0,0 -0.36107,-0.36107 -0.36108,-0.28886 -0.79437,-0.36108 -0.21664,-0.0722 -0.36107,-0.14443 -0.14443,-0.14443 -0.28886,-0.21664 -0.14443,-0.0722 -0.21665,-0.14443 -0.0722,0.21664 -0.5055,1.08322 -0.36108,0.86658 -0.86658,1.87759 -0.43329,1.01101 -0.86658,1.87759 -0.36108,0.79436 -0.43329,0.86658 -0.36108,0.36107 -0.43329,0.64993 0,0.28886 -0.21665,0.36108 -0.14443,0.0722 -0.36107,-0.14443 -0.14443,-0.21665 -0.72215,-0.36108 0.14443,-0.64993 0.5055,-1.4443 0.36108,-0.86657 0.57772,-1.51651 0.14443,-0.36107 0.28886,-0.79436 0.14443,-0.43329 0.28886,-0.79437 0.36108,-0.79436 0.43329,-1.4443 0.14443,-0.64993 0.21665,-0.93879 0.14443,-0.36108 0.0722,-0.64994 0,-0.36107 -0.21664,-0.64993 -0.21665,-0.36108 -0.64994,-1.01101 -1.08322,-1.51651 -0.36107,-2.81638 0.5055,-0.79437 0.93879,-0.86658 0.50551,-0.14443 1.4443,0.14443 0.43329,0.14443 0.86658,0.28886 0.43329,0.0722 0.79437,0.5055 0.36107,0.43329 0.57772,0.79437 0.28886,0.28886 0.21664,0.79436 0,0.57772 -0.0722,0.72215 0,0.14443 -0.36108,0.50551 -0.36107,0.36107 -0.57772,0.43328 -0.21664,0 0.28886,0.28886 0.14443,0.0722 0.21665,0.14443 0.0722,0.0722 0.21664,0.14443 0.21665,0.14443 0.93879,0.57772 0.79437,0.43329 1.08323,0.50551 0.28886,0.14443 0.5055,0.28886 0.21665,0.14443 0.57772,0.28886 0.14443,0.0722 0.36108,0.21664 0.21664,0.0722 0.43329,0.21665 0.36107,0.21664 0.28886,0.21664 -0.0722,0 0.28886,0.50551 l 0.0722,0.28886 q -0.0722,0.14443 0,0.14443 0.0722,0 0,0.14443 0.14443,0.28886 0.14443,0.28886 0,0 -0.0722,0.21664 -0.0722,0.14443 -0.0722,0.28886 0,0.0722 -0.0722,0.21665 l 0.14443,0.28886 q -0.0722,0.57772 -0.14443,1.08322 0,0.50551 0,0.86658 l -0.0722,-0.0722 q 0,0.0722 -0.0722,0.14443 0,0 0,0.0722 0,0.21664 -0.14443,1.08322 -0.0722,0.79437 -0.21665,1.73316 -0.0722,0.9388 -0.21664,1.73316 -0.0722,0.79437 -0.0722,1.01101 v 0.64994 q -0.0722,0.14443 -0.0722,0.36107 0.0722,0.14443 0.0722,0.36108 -0.14443,0.57771 -0.28886,1.29986 -0.14443,0.64994 -0.21664,1.22766 -0.0722,0.21664 -0.0722,0.43329 0,0.21664 -0.0722,0.36107 0,0.21665 -0.0722,0.43329 0,0.21665 0,0.43329 -0.0722,0.36108 -0.14443,0.64994 0,0.28886 -0.0722,0.57772 0,0.21664 0,0.14443 0.0722,-0.14443 0,0.0722 v 0.21665 0.0722 q 0,0.21665 0.0722,0.14443 0.0722,-0.0722 0.0722,-0.0722 0.0722,0 0.14443,-0.0722 0.28886,-0.21664 0.28886,-0.36107 0,-0.21665 0.21664,-0.50551 0.0722,-0.0722 0.0722,-0.14443 0,-0.0722 0.0722,-0.14443 0.14443,-0.28886 0.21665,-0.36107 0.0722,-0.14443 0.21664,-0.28886 0.14443,-0.36108 0.21665,-0.50551 0.14443,-0.21664 0.28886,-0.57772 0.36107,-0.72215 0.57772,-1.37208 0.14443,-0.43329 0.43329,-0.79437 0.36107,-0.43329 0.5055,-0.86657 l 0.43329,-1.51652 q 0.14443,-0.57772 0.43329,-1.01101 0.28886,-0.5055 0.43329,-1.08322 0.14443,-0.28886 0.43329,-0.9388 0.28886,-0.72215 0.43329,-1.01101 0.14443,-0.36107 0.21664,-0.64993 0.14443,-0.28886 0.28886,-0.57772 0.14443,-0.36108 0.21665,-0.72215 0.14443,-0.43329 0.28886,-0.57772 0.0722,0 0.0722,0 0.0722,-0.0722 0.21665,-0.0722 l 0.5055,0.0722 q 0.14443,0 0.14443,0.0722 z"
           inkscape:connector-curvature="0" />
        <path
           id="path857"
           style="font-style:normal;font-variant:normal;font-weight:normal;font-stretch:normal;font-size:72.21495056px;font-family:Carolinea;-inkscape-font-specification:'Carolinea, Normal';font-variant-ligatures:normal;font-variant-caps:normal;font-variant-numeric:normal;font-feature-settings:normal;text-align:center;writing-mode:lr-tb;text-anchor:middle;fill:url(#linearGradient899);fill-opacity:1;stroke-width:1.20354486px"
           d="m 366.07066,111.84778 q 0.21664,0.14443 0.21664,0.21665 0,0.0722 -0.14443,0.21664 -0.28886,0.57772 -0.5055,1.08322 -0.21665,0.50551 -0.50551,1.08323 -0.36107,0.86658 -0.72215,1.73316 -0.36107,0.86658 -0.72215,1.66094 -0.36107,0.79437 -0.57772,1.9498 -0.14443,1.08323 -0.5055,1.73316 -0.36108,0.9388 -0.43329,1.4443 0,0.43329 -0.28886,1.01101 -0.79436,1.01101 -1.08322,1.73316 -0.21665,0.64994 -1.29987,0.43329 -0.72215,-0.14443 -1.01101,-0.14443 -0.28886,-0.0722 -0.36108,-0.0722 0,-0.0722 0,-0.0722 0,0 -0.14443,-0.14443 -0.14443,-0.0722 -0.21664,0 0,0 -0.14443,-0.0722 -0.21665,-0.0722 -0.50551,-0.57772 l -1.4443,-1.51652 v -3.46632 q -0.0722,-0.14443 0,-0.21664 0.0722,-0.0722 0.0722,-0.21665 0.0722,-1.44429 0.21664,-2.59973 0.0722,-1.01101 0.14443,-1.80538 0.0722,-0.86658 0.0722,-1.01101 0.0722,-0.28886 0.14443,-0.43329 0.0722,-0.21664 0.14443,-0.5055 0.0722,-0.28886 0.0722,-0.36108 0,-0.0722 0,-0.0722 0,0 0,-0.0722 0,-0.0722 0,-0.36107 0.0722,-0.93879 0.14443,-1.9498 0.0722,-1.01101 0.36108,-2.02202 0.14443,-0.28886 0.14443,-0.36108 0,-0.0722 0,-0.0722 0,0 0,0 0.0722,-0.0722 0.28886,-0.43329 l 0.43329,-0.50551 q 0.28886,-0.43329 0.43329,-0.43329 l 1.15544,0.50551 q 0.36107,0.43329 0.86658,0.72215 0.57772,0.28886 0.86658,1.37208 -0.21665,0.0722 -0.36108,0.64994 -0.0722,0.57772 -0.14443,1.37208 -0.0722,0.72215 -0.14443,1.4443 0,0.64993 -0.0722,0.86658 -0.14443,0.5055 -0.14443,1.08322 0,0.57772 -0.14443,1.22766 0,0.36107 -0.14443,0.72215 -0.0722,0.28886 -0.14443,0.57772 -0.0722,0.79436 -0.21665,2.09423 -0.14443,1.22765 -0.0722,1.87759 v 0.0722 0.36108 q -0.0722,0 0.21664,-0.28886 l 0.43329,-0.64994 q 0.14443,-0.14443 0.43329,-0.93879 0.36108,-0.79436 0.43329,-0.93879 l 0.50551,-0.86658 q 0.0722,-0.28886 0.21664,-0.57772 0.14443,-0.28886 0.28886,-0.64994 0.21664,-0.36107 0.43329,-0.79436 0.21664,-0.43329 0.43329,-0.86658 0.28886,-0.50551 0.5055,-1.01101 0.50551,-0.86658 0.9388,-1.66095 0.21664,-0.57771 0.5055,-0.93879 v -0.14443 h 0.0722 q 0.0722,-0.0722 0.28886,0.0722 l 0.14443,0.14443 h 0.14443 l 0.36107,0.21664 z m -6.21049,-6.21049 q -0.5055,-0.0722 -0.64993,-0.21664 -0.57772,-0.72215 -0.9388,-1.08322 -0.28886,-0.43329 -0.36107,-0.72215 -0.0722,-0.28886 0,-0.57772 0.0722,-0.36108 0.21664,-1.01101 0.0722,-0.14443 0.0722,-0.21665 0,-0.14443 0.0722,-0.28886 0.43329,-1.01101 1.01101,-1.08322 0.36108,-0.14443 0.79437,0 0.43329,0.0722 1.22765,0.86658 0.0722,0.0722 0.28886,0.36107 0.28886,0.28886 0.28886,0.43329 0.21664,0.72215 0.43329,1.51652 0.28886,0.72215 -0.43329,1.44429 l -0.79436,0.64994 q -0.14443,0.14443 -0.36108,0.14443 -0.21664,-0.0722 -0.86658,-0.21665 z"
           inkscape:connector-curvature="0" />
        <path
           id="path859"
           style="font-style:normal;font-variant:normal;font-weight:normal;font-stretch:normal;font-size:72.21495056px;font-family:Carolinea;-inkscape-font-specification:'Carolinea, Normal';font-variant-ligatures:normal;font-variant-caps:normal;font-variant-numeric:normal;font-feature-settings:normal;text-align:center;writing-mode:lr-tb;text-anchor:middle;fill:url(#linearGradient901);fill-opacity:1;stroke-width:1.20354486px"
           d="m 381.88566,111.48671 q -0.21665,0.43329 -0.28886,0.72214 0,0.21665 -0.36108,0.64994 -0.36107,0.5055 -0.5055,1.08322 -0.0722,0.57772 -0.43329,1.15544 -0.57772,1.08323 -1.15544,2.52753 -0.50551,1.37208 -1.15544,2.52752 -0.36108,0.57772 -0.57772,1.01101 -0.21665,0.36107 -0.64994,0.93879 -1.15544,1.51652 -2.74416,2.59974 -0.14443,0.14443 -0.28886,0.28886 -0.14443,0.0722 -0.28886,0.21665 -0.21665,0.14443 -0.36108,0.21664 -0.14443,0 -0.43329,0.14443 -0.5055,0.36108 -1.80537,0.50551 -1.22766,0.0722 -1.80538,0 -0.21664,0 -0.72215,-0.14443 -0.43328,-0.14443 -0.93879,-0.28886 -0.5055,-0.21665 -0.93879,-0.36108 -0.36108,-0.21664 -0.57772,-0.36107 -0.36108,-0.21665 -0.72215,-0.36108 -0.28886,-0.21664 -0.43329,-0.57772 -0.21665,-0.36107 -0.36108,-0.72215 -0.14443,-0.43329 -0.43329,-0.64993 -0.28886,-0.28886 -0.36107,-0.64994 -0.14443,-0.43329 -0.28886,-0.79436 -0.14443,-0.36108 -0.28886,-0.79437 -0.14443,-0.5055 -0.14443,-0.86657 0.0722,-2.09424 0.21664,-3.68297 0.0722,-1.58873 1.29987,-3.46632 l 2.09424,-2.67195 q 1.4443,-1.80537 2.74416,-2.52752 1.37209,-0.72215 2.02202,-1.51652 0.28886,-0.36107 0.79437,-0.36107 0.5055,0 1.01101,0.14443 0.5055,0.0722 0.93879,0.21664 0.50551,0.14443 0.86658,0.14443 0.0722,-0.0722 0.21665,-0.43329 0.21664,-0.36107 0.28885,-0.5055 0.14443,-0.14443 0.36108,-0.21664 0.21664,-0.0722 0.36107,-0.14443 0.14443,0.0722 0.50551,0.36107 0.36107,0.21664 0.43329,0.36107 0.14443,0.36108 0.28886,0.79437 0.21664,0.43329 0.36107,0.79436 0.28886,0.64994 0.28886,0.9388 0.0722,0.28886 0,0.43329 0,0.0722 -0.14443,0.0722 -0.0722,0 -0.0722,0.14443 -0.14443,0.28886 -0.0722,0.28886 0.14443,0 -0.43329,0.36108 -0.72215,0.57772 -1.22765,0.86658 -0.43329,0.21664 -0.86658,0.43329 -0.43329,0.14443 -0.86658,0.36107 -0.43329,0.14443 -0.93879,0.50551 l -0.86658,0.57772 q -0.0722,0.14443 -0.28886,0.28886 -0.14443,0.14442 -0.28886,0.28885 -0.14443,0.14443 -0.28886,0.14443 -0.0722,-0.0722 -0.21665,0 -0.36107,-0.21664 -0.28886,-0.5055 0.0722,-0.14443 0.0722,-0.21664 0.0722,-0.14443 0.14443,-0.21665 l 0.64993,-1.15544 q 0.14443,-0.28886 0.28886,-0.5055 0.21665,-0.21665 0.36108,-0.50551 -0.28886,0.14443 -0.57772,0.36108 -0.21665,0.21664 -0.43329,0.28886 -0.14443,0.0722 -0.36108,0.0722 -0.21664,0 -0.36107,0.0722 -0.14443,0.14443 -0.21665,0.28886 0,0.0722 -0.0722,0.21664 -0.43329,0.57772 -1.08323,1.37209 -0.57772,0.72214 -1.22765,1.58872 -0.57772,0.86658 -1.01101,1.73316 -0.43329,0.86658 -0.57772,1.51652 -0.28886,1.08322 -0.21664,2.16645 0.14443,1.011 0.0722,1.58872 0,0.79437 0.36108,1.58873 0.43329,0.79437 1.51651,0.79437 0.28886,0.14443 0.93879,0.14443 0.64994,-0.0722 1.37209,-0.21665 0.72215,-0.14443 1.22765,-0.36107 0.57772,-0.28886 0.72215,-0.57772 0.57772,-0.36108 1.08323,-0.72215 0.93879,-0.72215 1.4443,-1.37209 0.57771,-0.72214 1.011,-1.44429 0.43329,-0.72215 0.86658,-1.51652 0.50551,-0.79436 1.29987,-1.73316 0.72215,-0.79436 1.08323,-1.66094 0.43329,-0.9388 0.79436,-1.51651 0.14443,-0.14443 0.21665,-0.36108 0.0722,-0.21664 0.21664,-0.43329 0.0722,-0.14443 0.14443,-0.14443 h 0.21665 l 0.14443,0.0722 h 0.0722 0.14443 l 0.28886,0.14443 z"
           inkscape:connector-curvature="0" />
        <path
           id="path861"
           style="font-style:normal;font-variant:normal;font-weight:normal;font-stretch:normal;font-size:72.21495056px;font-family:Carolinea;-inkscape-font-specification:'Carolinea, Normal';font-variant-ligatures:normal;font-variant-caps:normal;font-variant-numeric:normal;font-feature-settings:normal;text-align:center;writing-mode:lr-tb;text-anchor:middle;fill:url(#linearGradient903);fill-opacity:1;stroke-width:1.20354486px"
           d="m 405.86084,96.249351 q 0.57772,0.361075 0.86658,0.938794 0.36108,0.57772 0.50551,1.155439 0.21664,0.57772 0.36107,1.15544 0.14443,0.577716 0.28886,1.011006 0,0.50551 -0.0722,1.22766 -0.0722,0.72215 -0.14443,1.22765 -0.0722,0.57772 -0.21665,1.01101 -0.14443,0.43329 -0.28886,1.01101 -0.14443,0.36107 -0.21664,0.79436 0,0.43329 -0.14443,0.79437 -0.14443,0.36107 -0.21665,0.64993 0,0.21665 -0.14443,0.57772 -0.14443,0.28886 -0.36107,0.50551 -0.14443,0.14443 -0.28886,0.43329 -0.86658,1.66094 -1.80538,2.59974 -0.93879,0.93879 -2.52752,2.02201 l -1.08322,0.64994 q -0.36108,0.14443 -0.64994,0.36107 -0.21664,0.14443 -0.57772,0.28886 -0.28886,0.14443 -1.01101,0.43329 -0.36107,0.14443 -1.01101,0.0722 -0.64993,-0.14443 -1.011,-0.28886 -0.50551,-0.21665 -0.57772,-0.64994 -0.0722,-0.43329 -0.28886,-0.79436 -0.0722,0 -0.0722,0.28886 0,0.28886 0,0.43329 -0.14443,0.21664 -0.36107,1.73316 -0.21665,1.4443 -0.36108,3.53853 -0.21664,2.02202 -0.43329,3.61075 -0.21664,1.58873 -0.14443,1.73316 0.0722,0.21664 0.0722,0.79436 0,0.57772 -0.0722,1.15544 -0.0722,0.5055 -0.21664,0.79436 -0.14443,0.36108 -0.36108,-0.0722 -0.21664,0.21664 -1.08322,0.0722 -0.79437,-0.0722 -1.08323,0.0722 -0.5055,0.14443 -1.01101,-0.28886 -0.43329,-0.36108 -0.72215,-0.93879 -0.0722,-0.21665 -0.0722,-0.64994 0,-0.43329 0.0722,-0.86658 0.0722,-0.5055 0.0722,-0.93879 0.0722,-0.43329 0.0722,-0.57772 0,-0.21665 0,-0.64994 0.0722,-0.43329 0.14443,-0.93879 0.0722,-0.57772 0.14443,-1.01101 0.0722,-0.50551 0.0722,-0.72215 0.14443,-0.86658 0.0722,-1.29987 0,-0.5055 0.14443,-1.37208 0.28886,-1.66095 0.36108,-3.32189 0.14443,-1.66095 0.64993,-3.32189 0.28886,-0.86658 0.28886,-1.73316 0.0722,-0.93879 0.21665,-1.9498 0.36107,-2.52752 0.79436,-5.19948 0.43329,-2.671951 1.08323,-5.127259 -0.14443,0.14443 -0.57772,0.14443 -0.36108,0 -0.9388,0.216644 -0.72215,0.28886 -0.93879,0.361075 -0.36108,0.07221 -0.57772,0.361075 -0.21665,0.216645 -0.36108,0.361075 -0.14443,0.14443 -0.57772,0.433289 -0.36107,0.216645 -0.5055,0.649935 -0.14443,0.361075 -0.28886,0.722149 -0.14443,0.361077 -0.28886,0.722147 -0.14443,0.21665 -0.0722,0.57772 0.14443,0.36108 0,0.50551 -0.14443,0.14443 -0.21665,0.28886 0,0.14443 -0.21664,0.21664 -0.0722,0.0722 -0.50551,-0.0722 -0.36107,-0.14443 -0.57772,-0.64994 -0.21664,-0.5055 -0.36107,-0.72215 -0.21665,-0.28886 -0.36108,-0.866577 -0.14443,-0.577719 -0.0722,-1.011009 0.0722,-0.361075 0.14443,-0.794364 0.0722,-0.505505 0.21664,-0.86658 0.14443,-0.361075 0.36108,-0.722149 0.21664,-0.43329 0.5055,-0.794365 0.28886,-0.361074 0.50551,-0.577719 0.28886,-0.28886 0.5055,-0.505505 0.36108,-0.361075 0.86658,-0.57772 0.5055,-0.288859 1.01101,-0.505504 0.43329,-0.14443 0.86658,-0.28886 0.43329,-0.216645 0.79436,-0.361075 1.01101,-0.361075 1.58873,-0.28886 0.64994,0.07221 1.29987,-0.07221 0.36108,-0.07221 0.79437,-0.216644 0.43329,-0.14443 1.08322,0 1.01101,0.216644 1.58873,0.288859 0.64993,0.07221 1.37208,0.216645 2.16645,0.57772 3.17746,1.01101 1.01101,0.433289 1.51651,0.866579 0.50551,0.361075 0.72215,0.722149 0.21665,0.361075 0.86658,0.794365 z m -1.66094,5.560549 q 0,-1.08322 -0.43329,-1.66094 -0.43329,-0.577721 -1.01101,-1.444301 -0.5055,-0.866579 -1.29987,-1.083224 -0.64993,-0.216645 -1.29987,-0.505505 -0.57772,-0.288859 -1.15544,-0.649934 -0.36107,-0.07221 -0.64993,-0.14443 -0.28886,-0.07221 -0.50551,-0.07221 -0.21664,0 -0.28886,-0.07221 -1.01101,-0.14443 -1.87758,0.07221 -0.79437,0.14443 -0.72215,0.14443 0.0722,0 0.21664,0 0.21665,0 0.50551,0.07221 0.28886,0.07221 0.57772,0.361075 0.28885,0.216644 0.57771,0.794364 0.0722,0.14443 0.14443,0.43329 0.14443,0.288859 0.28886,0.649934 0.14443,0.361075 0.36108,0.86658 -0.14443,0.288859 -0.50551,2.383091 -0.28886,2.09424 -0.64993,4.40511 -0.21664,1.37209 -0.36107,2.52753 -0.14443,1.15544 -0.28886,1.80537 -0.0722,0.50551 -0.0722,0.50551 0,0 0.43329,0 0.5055,0 0.72215,-0.0722 0.28886,-0.14443 0.5055,-0.28886 0.21665,-0.21664 0.50551,-0.36107 0.72215,-0.28886 1.01101,-0.43329 0.36107,-0.14443 0.57772,-0.28886 0.28886,-0.21665 0.57772,-0.36108 0.28886,-0.14443 0.5055,-0.36107 0.28886,-0.28886 0.57772,-0.57772 0.21665,-0.28886 0.64994,-0.57772 0.5055,-0.36108 0.72215,-0.72215 0.14443,-0.28886 0.21664,-0.57772 0.14443,-0.28886 0.28886,-0.57772 0.14443,-0.28886 0.21665,-0.50551 0.14443,-0.28886 0.28886,-0.57772 l 0.43328,-1.51651 q 0.0722,-0.43329 0.0722,-0.79436 0.0722,-0.43329 0.14443,-0.79437 z"
           inkscape:connector-curvature="0" />
        <path
           id="path863"
           style="font-style:normal;font-variant:normal;font-weight:normal;font-stretch:normal;font-size:72.21495056px;font-family:Carolinea;-inkscape-font-specification:'Carolinea, Normal';font-variant-ligatures:normal;font-variant-caps:normal;font-variant-numeric:normal;font-feature-settings:normal;text-align:center;writing-mode:lr-tb;text-anchor:middle;fill:url(#linearGradient905);fill-opacity:1;stroke-width:1.20354486px"
           d="m 418.13727,111.84778 q 0.21665,0.14443 0.21665,0.21665 0,0.0722 -0.14443,0.21664 -0.28886,0.57772 -0.50551,1.08322 -0.21664,0.50551 -0.5055,1.08323 -0.36108,0.86658 -0.72215,1.73316 -0.36108,0.86658 -0.72215,1.66094 -0.36107,0.79437 -0.57772,1.9498 -0.14443,1.08323 -0.5055,1.73316 -0.36108,0.9388 -0.43329,1.4443 0,0.43329 -0.28886,1.01101 -0.79437,1.01101 -1.08323,1.73316 -0.21664,0.64994 -1.29987,0.43329 -0.72215,-0.14443 -1.01101,-0.14443 -0.28886,-0.0722 -0.36107,-0.0722 0,-0.0722 0,-0.0722 0,0 -0.14443,-0.14443 -0.14443,-0.0722 -0.21665,0 0,0 -0.14443,-0.0722 -0.21664,-0.0722 -0.5055,-0.57772 l -1.4443,-1.51652 v -3.46632 q -0.0722,-0.14443 0,-0.21664 0.0722,-0.0722 0.0722,-0.21665 0.0722,-1.44429 0.21664,-2.59973 0.0722,-1.01101 0.14443,-1.80538 0.0722,-0.86658 0.0722,-1.01101 0.0722,-0.28886 0.14442,-0.43329 0.0722,-0.21664 0.14443,-0.5055 0.0722,-0.28886 0.0722,-0.36108 0,-0.0722 0,-0.0722 0,0 0,-0.0722 0,-0.0722 0,-0.36107 0.0722,-0.93879 0.14443,-1.9498 0.0722,-1.01101 0.36107,-2.02202 0.14443,-0.28886 0.14443,-0.36108 0,-0.0722 0,-0.0722 0,0 0,0 0.0722,-0.0722 0.28886,-0.43329 l 0.43329,-0.50551 q 0.28886,-0.43329 0.43329,-0.43329 l 1.15544,0.50551 q 0.36108,0.43329 0.86658,0.72215 0.57772,0.28886 0.86658,1.37208 -0.21664,0.0722 -0.36107,0.64994 -0.0722,0.57772 -0.14443,1.37208 -0.0722,0.72215 -0.14443,1.4443 0,0.64993 -0.0722,0.86658 -0.14443,0.5055 -0.14443,1.08322 0,0.57772 -0.14443,1.22766 0,0.36107 -0.14443,0.72215 -0.0722,0.28886 -0.14443,0.57772 -0.0722,0.79436 -0.21664,2.09423 -0.14443,1.22765 -0.0722,1.87759 v 0.0722 0.36108 q -0.0722,0 0.21665,-0.28886 l 0.43329,-0.64994 q 0.14443,-0.14443 0.43329,-0.93879 0.36107,-0.79436 0.43329,-0.93879 l 0.5055,-0.86658 q 0.0722,-0.28886 0.21665,-0.57772 0.14443,-0.28886 0.28886,-0.64994 0.21664,-0.36107 0.43329,-0.79436 0.21664,-0.43329 0.43329,-0.86658 0.28886,-0.50551 0.5055,-1.01101 0.5055,-0.86658 0.93879,-1.66095 0.21665,-0.57771 0.50551,-0.93879 v -0.14443 h 0.0722 q 0.0722,-0.0722 0.28886,0.0722 l 0.14443,0.14443 h 0.14443 l 0.36108,0.21664 z m -6.21048,-6.21049 q -0.50551,-0.0722 -0.64994,-0.21664 -0.57772,-0.72215 -0.93879,-1.08322 -0.28886,-0.43329 -0.36108,-0.72215 -0.0722,-0.28886 0,-0.57772 0.0722,-0.36108 0.21665,-1.01101 0.0722,-0.14443 0.0722,-0.21665 0,-0.14443 0.0722,-0.28886 0.43329,-1.01101 1.01101,-1.08322 0.36107,-0.14443 0.79436,0 0.43329,0.0722 1.22766,0.86658 0.0722,0.0722 0.28886,0.36107 0.28886,0.28886 0.28886,0.43329 0.21664,0.72215 0.43329,1.51652 0.28886,0.72215 -0.43329,1.44429 l -0.79437,0.64994 q -0.14443,0.14443 -0.36107,0.14443 -0.21665,-0.0722 -0.86658,-0.21665 z"
           inkscape:connector-curvature="0" />
        <path
           id="path865"
           style="font-style:normal;font-variant:normal;font-weight:normal;font-stretch:normal;font-size:72.21495056px;font-family:Carolinea;-inkscape-font-specification:'Carolinea, Normal';font-variant-ligatures:normal;font-variant-caps:normal;font-variant-numeric:normal;font-feature-settings:normal;text-align:center;writing-mode:lr-tb;text-anchor:middle;fill:url(#linearGradient907);fill-opacity:1;stroke-width:1.20354486px"
           d="m 436.11872,111.55892 q 0,0.14443 0,0.28886 0.0722,0.0722 0,0.21665 -0.14443,0.43328 -0.14443,0.64993 -0.14443,0.57772 -0.43329,1.15544 -0.21665,0.5055 -0.36108,1.08322 -0.14443,0.43329 -0.43329,0.9388 -0.21664,0.5055 -0.28886,0.93879 -0.0722,0.28886 -0.21664,0.57772 -0.0722,0.21665 -0.14443,0.50551 -0.14443,0.43329 -0.21665,1.15544 -0.0722,0.64993 -0.21664,1.08322 0,0.14443 -0.28886,0.79436 -0.21665,0.64994 -0.50551,1.4443 -0.28886,0.72215 -0.57772,1.4443 -0.28886,0.64994 -0.36107,0.86658 -0.21665,0.43329 -0.36108,0.86658 -0.0722,0.43329 -0.28886,0.79437 -0.36107,0.5055 -0.36107,0.86657 0,0.36108 -0.5055,0.79437 -0.28886,0.36107 -0.57772,0.93879 -0.28886,0.57772 -0.64994,0.72215 -0.36107,0.14443 -1.01101,-0.21664 -0.64993,-0.36108 -1.15544,-0.43329 -0.28886,0 -1.01101,-0.64994 -0.64993,-0.57772 -0.72215,-0.72215 -0.14443,-0.21664 -0.14443,-0.64993 0.0722,-0.36107 -0.14443,-0.72215 -0.21664,-0.5055 -0.0722,-0.72215 0.14443,-0.28886 0.14443,-0.86658 -0.0722,-0.14443 -0.0722,-0.93879 v -0.79437 q 0.0722,-0.21664 0.0722,-0.64993 0,-0.14443 -0.0722,-0.28886 0,-0.21665 0.0722,-0.36108 0,-0.43329 0.0722,-0.86658 0.14443,-0.5055 0.28886,-1.01101 0,-0.21664 0,-0.43328 0.0722,-0.21665 0.0722,-0.43329 0,-0.0722 0.0722,-0.50551 0.14443,-0.5055 0.21665,-1.01101 0.14443,-0.57772 0.21664,-1.01101 0.14443,-0.43329 0.14443,-0.57772 0.0722,-0.28886 0,-0.43329 0,-0.21664 0.0722,-0.5055 0.0722,-0.14443 0.14443,-0.36108 0.0722,-0.28886 0.0722,-0.43329 0.0722,-0.21664 0,-0.43329 -0.0722,-0.21664 -0.0722,-0.43329 0.0722,-0.14443 0.0722,-0.28886 0,-0.21664 0.0722,-0.36107 0.0722,-0.21665 0.0722,-0.43329 0,-0.28886 0.0722,-0.43329 0.0722,-0.14443 0.0722,-0.28886 0,-0.14443 0.0722,-0.28886 0.0722,-0.28886 -0.14443,-0.5055 -0.21665,-0.21665 -0.14443,-0.36108 -0.28886,0.14443 -0.57772,0.36108 -0.21665,0.14443 -0.43329,0.28886 -0.28886,0.14443 -0.50551,0.36107 -0.21664,0.14443 -0.43329,0.28886 -0.36107,0.36108 -0.64993,0.72215 -0.21665,0.36107 -0.50551,0.72215 -0.14443,0.14443 -0.28885,0.28886 -0.14443,0.0722 -0.28886,0.21664 -0.14443,0.21665 -0.21665,0.43329 -0.0722,0.14443 -0.21664,0.36108 -0.21665,0.36107 -0.50551,0.72215 -0.21664,0.36107 -0.5055,0.79436 -0.21665,0.28886 -0.57772,1.15544 -0.28886,0.86658 -0.57772,1.58873 l -0.28886,1.9498 q -0.0722,0.21665 -0.0722,0.57772 0,0.28886 -0.0722,0.9388 -0.0722,0.43329 -0.21665,1.29987 -0.14443,0.86658 -0.0722,1.08322 -0.0722,0.14443 -0.21665,0 -0.0722,-0.14443 -0.28886,0 -0.21664,0.14443 -0.28886,0 -0.0722,-0.14443 -0.36107,-0.0722 -0.43329,0.14443 -1.01101,0 -0.14443,-0.0722 -0.36108,-0.0722 -0.21664,0 -0.36107,-0.0722 -0.28886,-0.21665 -0.50551,-0.21665 -0.21664,-0.0722 -0.36107,-0.43329 -0.14443,-0.28886 -0.0722,-0.79436 0,-0.57772 0,-0.9388 0,-0.79436 0.0722,-1.4443 0.0722,-0.72215 0.21664,-2.16644 0,-0.28886 0.0722,-0.72215 0,-0.50551 0.0722,-1.08323 v -0.5055 q 0.0722,-0.79437 0.21665,-1.37209 v -0.21664 -0.0722 -0.21664 q 0,-0.0722 0.0722,-0.28886 0.14443,-0.21665 0.14443,-0.57772 0,-0.79437 0.0722,-1.37208 0.14443,-0.57772 0.21664,-1.08323 0.14443,-0.57772 0.21665,-1.15544 0.14443,-0.64993 0.21664,-1.58873 v -0.43329 q 0,-0.5055 0.57772,-0.57772 0.21665,-0.0722 0.43329,-0.14443 0.21665,-0.14443 0.50551,-0.21664 l 0.43329,0.0722 q 0.36107,0 0.57772,0 0.21664,0 0.64993,-0.0722 0.28886,0 0.72215,0.28886 0.43329,0.28886 0.36108,0.64993 -0.0722,0.14443 -0.0722,0.28886 -0.0722,0.50551 -0.14443,1.08323 0,0.57772 0.0722,1.08322 l -0.14443,0.64994 q 0,0.14443 -0.0722,0.36107 0,0.14443 0,0.28886 -0.0722,0.36108 -0.0722,0.72215 0.14443,-0.28886 0.28886,-0.43329 0.28886,-0.43329 0.5055,-0.64993 0.21665,-0.36108 0.36108,-0.43329 0.14443,-0.0722 0.36107,-0.43329 0.14443,-0.14443 0.28886,-0.28886 0.14443,-0.14443 0.28886,-0.28886 0.21664,-0.36108 0.5055,-0.50551 0.28886,-0.21664 0.50551,-0.5055 0.28886,-0.21665 0.72215,-0.64994 0.21664,-0.14443 0.36107,-0.28886 0.21665,-0.14443 0.36108,-0.28886 0.86658,-0.5055 1.01101,-0.79436 0.21664,-0.28886 1.22765,0 0.21665,0.0722 0.64994,0.14443 0.43329,0.0722 0.86658,0.21664 0.43329,0.0722 0.79436,0.21665 0.36108,0.14443 0.43329,0.36107 0.21664,0.50551 0.36107,0.79437 0.14443,0.21664 0.14443,0.43329 0.0722,0.14443 0,0.36107 0,0.21665 -0.14443,0.64994 l -0.21664,0.86658 q -0.0722,0.21664 0,0.43329 0.0722,0.14443 0,0.36107 -0.0722,0.14443 -0.0722,0.36108 0.0722,0.21664 0.0722,0.43329 -0.0722,0.21664 -0.14443,0.5055 0,0.21664 -0.0722,0.43329 -0.0722,0.36107 -0.0722,0.64993 0,0.28886 -0.0722,0.64994 -0.0722,0.36107 -0.14443,0.79436 0,0.36108 -0.0722,0.79437 0,0.0722 -0.14443,0.5055 -0.0722,0.43329 -0.14443,1.01101 -0.0722,0.50551 -0.21664,0.9388 -0.0722,0.43329 -0.0722,0.5055 0,0.14443 0,0.36108 0.0722,0.14443 0,0.28886 -0.0722,0.64993 -0.21664,1.37208 -0.14443,0.64993 -0.28886,1.22765 0,0.21665 -0.0722,0.43329 0,0.21665 0,0.36108 -0.0722,0.21664 -0.0722,0.43329 0,0.21664 -0.0722,0.43329 -0.0722,0.36107 -0.0722,0.64993 0,0.28886 -0.0722,0.57772 -0.0722,0.21665 -0.0722,0.14443 0.0722,-0.14443 0.0722,0.0722 -0.28886,0.57772 0.14443,0.57772 0.14443,0 0.0722,-0.0722 -0.0722,-0.14443 0.21664,-0.36107 0.28886,-0.14443 0.28886,-0.36108 0,-0.21664 0.21665,-0.43329 0.0722,-0.14443 0.0722,-0.14443 0,-0.0722 0.0722,-0.21664 0.14443,-0.21665 0.0722,-0.28886 -0.0722,-0.14443 0.0722,-0.28886 0.21664,-0.36108 0.28886,-0.50551 0.14443,-0.21664 0.28886,-0.57772 0.14442,-0.36107 0.28885,-0.64993 0.14443,-0.28886 0.28886,-0.64994 0.14443,-0.43329 0.36108,-0.86658 0.21664,-0.5055 0.36107,-0.93879 0.14443,-0.36107 0.28886,-0.93879 0.21665,-0.64994 0.28886,-1.01101 0.21665,-0.57772 0.43329,-1.01101 0.21665,-0.50551 0.36108,-1.01101 0.14443,-0.36108 0.28886,-0.79437 0.14443,-0.43329 0.28886,-0.72215 0.14443,-0.36107 0.21664,-0.64993 0.14443,-0.28886 0.28886,-0.57772 0.21665,-0.36108 0.28886,-0.72215 0.14443,-0.43329 0.28886,-0.57772 0.0722,0 0.21665,-0.0722 0.14443,-0.0722 0.28886,-0.0722 l 0.57772,0.21665 q 0.14443,0 0.14443,0.0722 z"
           inkscape:connector-curvature="0" />
        <path
           id="path867"
           style="font-style:normal;font-variant:normal;font-weight:normal;font-stretch:normal;font-size:72.21495056px;font-family:Carolinea;-inkscape-font-specification:'Carolinea, Normal';font-variant-ligatures:normal;font-variant-caps:normal;font-variant-numeric:normal;font-feature-settings:normal;text-align:center;writing-mode:lr-tb;text-anchor:middle;fill:url(#linearGradient909);fill-opacity:1;stroke-width:1.20354486px"
           d="m 450.92277,111.41449 q 0.14443,0.14443 0.21665,0.21665 0.0722,0 -0.0722,0.21664 -0.14443,0.14443 -0.28886,0.43329 -0.14443,0.14443 -0.21664,0.36107 -0.0722,0.21665 -0.21665,0.36108 -0.14443,0.36107 -0.28886,0.79436 -0.14443,0.36108 -0.36107,0.72215 -0.14443,0.43329 -0.43329,0.86658 -0.21665,0.36108 -0.43329,0.72215 -0.28886,0.64994 -0.50551,1.37209 -0.21664,0.64993 -0.57772,1.29987 -0.14443,0.28886 -0.21664,0.5055 -0.0722,0.21665 -0.28886,0.57772 -0.14443,0.28886 -0.36108,0.64993 -0.21664,0.28886 -0.43329,0.64994 -0.14443,0.21664 -0.28886,0.57772 -0.0722,0.28886 -0.21664,0.5055 -0.14443,0.14443 -0.50551,0.72215 -0.28886,0.50551 -0.64993,1.15544 -0.36108,0.64994 -0.72215,1.22766 -0.36107,0.57772 -0.57772,0.72215 -0.36107,0.28886 -0.64993,0.5055 -0.28886,0.14443 -0.64994,0.36107 -0.36107,0.28886 -1.08322,0.43329 -0.64994,0.14443 -0.9388,0.14443 -0.36107,0 -0.93879,-0.0722 -0.50551,-0.0722 -1.08323,-0.21665 -0.57772,-0.0722 -1.08322,-0.21664 -0.5055,-0.14443 -0.72215,-0.36107 -1.15544,-1.08323 -1.80537,-2.45531 -0.64994,-1.37209 -1.22766,-2.81639 -0.0722,-0.21664 -0.0722,-1.08322 0,-0.86658 0,-1.80537 0,-1.01101 0.0722,-1.87759 0.0722,-0.86658 0.0722,-1.08323 0.14443,-0.64993 0.43329,-1.4443 0.21664,-0.79436 0.57772,-1.4443 0.36107,-0.64993 0.43329,-0.93879 0.14443,-0.36107 0.21664,-0.64993 0.14443,-0.28886 0.43329,-0.72215 0.28886,-0.43329 1.08323,-1.29987 0.57771,-0.57772 0.93879,-1.01101 0.36107,-0.43329 1.01101,-0.9388 0.36107,-0.28886 1.15544,-0.86658 0.79436,-0.57772 1.15544,-0.64993 0.43329,-0.14443 0.72215,-0.28886 0.36107,-0.14443 0.72215,-0.28886 0.14443,0 0.14443,0 0.0722,-0.0722 0.14443,-0.0722 0.5055,-0.14442 0.5055,-0.21664 0.0722,-0.14443 0.0722,-0.21664 h 0.0722 q 0,0 0.57772,0.21664 0.43329,0.28886 0.86658,0.57772 0.43329,0.28886 0.72215,0.43329 0.28886,0.28886 0.57772,1.22765 0.28886,0.86658 0.57772,1.22766 0.43329,0.79436 0.36107,1.4443 -0.0722,0.64993 -0.21664,1.22765 -0.14443,0.36108 -0.14443,0.64994 0,0.28886 -0.28886,0.64993 -0.14443,0.21664 -0.36108,0.36107 -0.21664,0.0722 -0.43329,0.36108 -1.08322,0.79436 -2.23866,1.66094 -1.08322,0.79437 -2.52752,1.15544 -0.50551,0.14443 -0.9388,0.36108 -0.43329,0.14443 -0.79436,0.28886 -0.36108,0.14443 -0.64994,0.14443 -0.28886,-0.0722 -0.5055,0.28886 -0.0722,0.21664 -0.14443,0.5055 -0.0722,0.28886 -0.0722,0.43329 0,0.14443 -0.0722,0.72215 -0.0722,0.57772 -0.14443,1.22765 -0.0722,0.64994 -0.14443,1.29987 0,0.57772 0,0.64994 0.21664,0.43329 0.21664,0.64993 0.0722,0.21665 0.43329,0.72215 0.28886,0.50551 0.43329,0.72215 0.14443,0.14443 0.21665,0.21665 0.0722,0.0722 0.14443,0.14443 0.14443,0 0.36107,0.0722 0.43329,0.14443 1.01101,-0.21664 0.64994,-0.36108 1.22766,-0.86658 0.57772,-0.50551 1.08322,-1.01101 0.57772,-0.57772 0.86658,-0.86658 0.36108,-0.36108 0.57772,-0.79437 0.21664,-0.5055 0.57772,-0.86657 0.57772,-0.57772 0.86658,-0.9388 0.36107,-0.36107 0.57772,-0.57772 0.36107,-0.36107 0.57772,-0.79436 0.21664,-0.43329 0.57772,-0.9388 0.14443,-0.36107 0.36107,-0.64993 0.28886,-0.28886 0.50551,-0.64994 0.43329,-1.01101 1.01101,-2.02202 0.28886,-0.57772 0.72215,-1.22765 0.14443,-0.14443 0.28886,-0.36107 0.14443,-0.21665 0.28886,-0.36108 0.14443,-0.14443 0.28886,-0.0722 0.0722,0.14443 0.21664,0.21664 l 0.0722,0.14443 z m -12.5654,2.52752 q -0.28886,0.28886 0,0.64994 0.0722,0 0.57772,-0.36108 0.57772,-0.43329 1.22765,-0.93879 0.64994,-0.50551 1.22766,-0.9388 0.57772,-0.43328 0.72215,-0.57771 0.21664,-0.28886 0.43329,-0.57772 0.21664,-0.36108 0.43329,-0.57772 0.28886,-0.21665 0.43329,-0.43329 0.21664,-0.21665 0.36107,-0.43329 0.43329,-0.50551 0.43329,-1.22766 0,-0.21664 0,-0.5055 0.0722,-0.36108 0,-0.64994 -0.28886,-0.79436 -0.57772,-0.57772 -0.28886,0.21665 -0.57772,0.57772 -0.36107,0.36108 -0.79436,0.79437 -0.36108,0.43329 -0.72215,0.86658 -0.50551,0.57772 -0.86658,1.08322 -0.28886,0.50551 -0.43329,0.64994 l -0.43329,0.43329 q -0.0722,0.0722 -0.28886,0.5055 -0.21665,0.36108 -0.43329,0.86658 -0.21665,0.5055 -0.43329,0.93879 -0.21665,0.36108 -0.28886,0.43329 z"
           inkscape:connector-curvature="0" />
        <path
           id="path869"
           style="font-style:normal;font-variant:normal;font-weight:normal;font-stretch:normal;font-size:72.21495056px;font-family:Carolinea;-inkscape-font-specification:'Carolinea, Normal';font-variant-ligatures:normal;font-variant-caps:normal;font-variant-numeric:normal;font-feature-settings:normal;text-align:center;writing-mode:lr-tb;text-anchor:middle;fill:url(#linearGradient911);fill-opacity:1;stroke-width:1.20354486px"
           d="m 470.34846,89.750005 q 0.72215,1.516514 0.57772,2.383094 -0.0722,0.866579 -0.64993,2.599738 -0.0722,0.361075 -0.36108,1.083224 -0.43329,1.083224 -1.08322,2.166449 -0.43329,0.649934 -1.08323,1.588729 -0.57772,0.866581 -1.15543,1.299871 -0.64994,0.57772 -1.08323,1.08322 -0.36107,0.50551 -0.72215,0.79437 -0.14443,0.14443 -0.21664,0.21664 -0.0722,0 -0.21665,0.14443 -0.43329,0.36108 -0.5055,0.50551 0,0.0722 -0.50551,0.43329 0,0.64993 -0.0722,0.93879 0,0.28886 0,0.5055 0,0.21665 -0.0722,0.57772 0,0.28886 -0.0722,0.9388 -0.14443,0.79436 -0.14443,1.4443 0,0.57772 0,0.72215 0,0.28886 -0.0722,0.5055 -0.0722,0.21665 -0.0722,0.50551 -0.0722,0.57772 -0.14443,1.08322 0,0.43329 -0.14443,0.93879 -0.0722,0.64994 -0.14443,1.29987 0,0.64994 -0.0722,1.37209 -0.0722,0.43329 -0.0722,0.86658 0,0.43329 -0.0722,0.86658 -0.0722,0.57772 -0.14443,1.15544 -0.0722,0.5055 -0.0722,1.01101 -0.0722,1.22765 -0.0722,2.02201 0,0.72215 -0.14443,0.86658 0,0 0.14443,0.28886 v 0.28886 q 0.0722,1.01101 0,0.9388 -0.0722,-0.0722 0.28886,-0.72215 l 0.57772,-0.9388 0.64994,-1.22765 0.72215,-1.08322 1.66094,-2.67196 1.15544,-2.23866 0.5055,-1.15544 0.72215,-1.58873 q 0.21665,-0.21664 0.28886,-0.36107 0.43329,0.14443 0.64994,0.21664 0.14443,0.14443 0.14443,0.21665 0.0722,0.0722 -0.0722,0.57771 0,0.0722 -0.14443,0.36108 -0.0722,0.21664 -0.0722,0.57772 0,0.21664 -0.14443,0.43329 -0.0722,0.21664 -0.14443,0.43329 -0.21665,0.79436 -0.43329,1.22765 -0.14443,0.36108 -0.43329,0.86658 -0.14443,0.28886 -0.28886,0.64994 -0.14443,0.36107 -0.28886,0.86658 -0.36108,0.86658 -0.79436,1.73316 -0.36108,0.79436 -0.72215,1.58872 -0.21665,0.50551 -0.50551,1.01101 -0.21664,0.43329 -0.43329,0.9388 -0.28886,0.57772 -0.57772,1.22765 -0.28886,0.64994 -0.72215,1.22766 -0.43329,0.64993 -0.72215,0.86658 -0.28886,0.21664 -0.64993,0.21664 -0.28886,0.0722 -0.72215,0.0722 -0.36108,-0.0722 -0.9388,-0.36108 -0.93879,-0.43329 -1.51651,-0.93879 -0.5055,-0.57772 -0.79436,-1.66095 -0.0722,-0.5055 -0.14443,-1.01101 -0.0722,-0.5055 -0.14443,-1.08322 -0.0722,-0.36108 -0.0722,-0.72215 0,-0.36108 -0.0722,-0.72215 0,-0.5055 0.0722,-0.93879 0.0722,-0.50551 0.0722,-0.86658 0,-0.50551 0.0722,-1.37209 0.14443,-0.86658 0.28886,-1.87759 -0.43329,0.50551 -0.93879,1.22766 -0.50551,0.72215 -1.01101,1.37208 -0.43329,0.64994 -0.86658,1.22766 -0.36108,0.5055 -0.43329,0.64993 0,0.0722 -0.43329,0.64993 -0.36108,0.57772 -0.86658,1.29987 -0.50551,0.64994 -0.9388,1.22766 -0.36107,0.5055 -0.36107,0.5055 -0.36107,0.14443 -0.79436,0.36108 -0.36108,0.21664 -0.86658,0.0722 -0.64994,-0.14443 -1.01101,-0.21664 -0.28886,-0.0722 -0.64994,-0.64994 -0.64993,-1.01101 -1.08322,-1.73316 -0.50551,-0.79436 -0.57772,-1.9498 -0.0722,-0.86658 -0.0722,-1.66094 -0.0722,-0.86658 0.21665,-1.66095 0.28886,-0.79436 0.72215,-1.80537 0.43329,-1.08323 0.93879,-2.16645 0.50551,-1.08322 1.08323,-2.09423 0.57772,-1.01101 1.15544,-1.66095 0.57772,-0.57772 1.08322,-1.01101 0.57772,-0.43329 1.15544,-1.01101 0.93879,-0.72215 1.58873,-0.86658 0.64993,-0.14443 1.9498,0.21665 0.36108,0.14443 0.9388,0.28886 0.64993,0.0722 1.22765,0.28886 0.0722,-0.43329 0.0722,-0.50551 0.0722,-0.0722 0.0722,-0.0722 0,0 0,-0.0722 0.0722,-0.14443 0.14443,-0.57771 0,-0.14443 0,-0.28886 0.0722,-0.14443 0.0722,-0.28886 0.21665,-2.31088 0.72215,-4.332901 0.50551,-2.022019 1.15544,-4.260683 0.28886,-0.794364 0.57772,-1.588728 0.36108,-0.794365 0.72215,-1.516514 0.36108,-0.86658 0.72215,-1.733159 0.36108,-0.86658 0.9388,-1.588729 0.57772,-0.505505 0.79436,-0.72215 0.28886,-0.288859 1.29987,-0.14443 0.79436,0.216645 1.58873,0.43329 0.79436,0.14443 1.51651,0.43329 0.36108,0.14443 0.36108,0.28886 0.0722,0.07221 0.21664,0.433289 z m -11.6266,20.870125 q 0,-0.14443 0.14443,-1.01101 0.14443,-0.86658 0.28886,-1.87759 -0.36108,0.0722 -0.86658,0.21664 -0.43329,0.0722 -1.15544,0.21665 -0.79437,0.14443 -1.01101,0.86658 -0.0722,0.14443 -0.50551,0.57772 -0.36107,0.43329 -0.5055,0.57772 -0.21665,0.28886 -0.9388,1.58873 -0.72215,1.22765 -1.4443,2.74416 -0.72214,1.51652 -1.29986,2.8886 -0.50551,1.37209 -0.43329,1.80538 1.87758,-1.29987 3.03302,-2.8886 1.22766,-1.66095 2.67196,-3.46632 0.28886,-0.36108 0.57772,-0.64994 0.36107,-0.36107 0.72215,-0.72214 0.43329,-0.28886 0.64993,-0.43329 0,-0.14443 0,-0.21665 0.0722,-0.0722 0.0722,-0.21664 z m 9.31572,-18.775891 q 0,-0.43329 0.21665,-0.649935 0.21664,-0.216644 0.0722,-0.288859 -0.0722,-0.07221 -0.14443,-0.07221 -0.0722,0 -0.21664,-0.07221 l -0.0722,0.07221 q -0.14443,0.14443 -0.21664,0.14443 -0.0722,0.07221 -0.43329,0.649934 -0.28886,0.505505 -0.28886,0.57772 -0.21665,0.288859 -0.43329,0.722149 -0.14443,0.361075 -0.36107,0.86658 -0.36108,0.866579 -0.57772,1.588729 -0.14443,0.433289 -0.28886,0.866579 -0.14443,0.361075 -0.28886,0.722149 -0.14443,0.361075 -0.21665,0.649935 -0.0722,0.28886 -0.21664,0.57772 -0.14443,0.433289 -0.36108,1.155439 -0.21664,0.722151 -0.36107,1.083231 -0.14443,0.36107 -0.21665,0.72215 0,0.36107 -0.0722,0.57772 l 0.72215,-1.29987 q 0.28886,-0.28886 0.57772,-0.505512 0.36107,-0.288859 0.5055,-0.649934 0.14443,-0.28886 0.50551,-0.938795 0.36107,-0.649934 0.5055,-0.938794 0.28886,-0.577719 0.5055,-1.516514 0.14443,-0.361075 0.28886,-0.938794 0.0722,-0.14443 0.0722,-0.216645 0,-0.07221 0.0722,-0.14443 0.14443,-0.722149 0.21665,-1.011009 0.14443,-0.57772 0.14443,-0.72215 0.0722,-0.361075 0.21664,-0.577719 0.14443,-0.216645 0.14443,-0.43329 z"
           inkscape:connector-curvature="0" />
        <path
           id="path871"
           style="font-style:normal;font-variant:normal;font-weight:normal;font-stretch:normal;font-size:72.21495056px;font-family:Carolinea;-inkscape-font-specification:'Carolinea, Normal';font-variant-ligatures:normal;font-variant-caps:normal;font-variant-numeric:normal;font-feature-settings:normal;text-align:center;writing-mode:lr-tb;text-anchor:middle;fill:url(#linearGradient913);fill-opacity:1;stroke-width:1.20354486px"
           d="M 486.59675,111.77557 V 111.92 q -0.28886,0.57771 -0.28886,0.57771 -0.36107,0.79437 -0.57772,2.09424 -0.14443,0.57772 -0.28886,1.08322 -0.0722,0.43329 -0.21664,0.79437 -0.14443,0.36107 -0.36108,1.15544 -0.21664,0.79436 -0.57772,1.80537 -0.14443,0.64993 -0.36107,1.37208 -0.21665,0.72215 -0.36108,1.37209 -0.28886,0.86658 -0.5055,1.51651 -0.21665,0.64994 -0.36108,0.86658 -0.0722,0.14443 -0.36107,0.43329 -0.21664,0.28886 -0.57772,0.64994 -0.28886,0.36107 -0.64993,0.72215 -0.28886,0.28886 -0.43329,0.36107 -0.21665,0.14443 -1.01101,0 -0.72215,-0.21664 -1.08323,-0.36107 -0.72215,-0.14443 -0.93879,-0.21665 -0.21665,-0.0722 -0.57772,-0.64993 -0.36108,-0.50551 -0.57772,-0.79437 -0.21665,-0.36107 -0.36108,-0.64993 -0.28886,-0.50551 -0.28886,-1.15544 0.0722,-0.72215 0.21665,-1.51652 0.0722,-0.36107 0,-0.72215 -0.0722,-0.43329 -0.0722,-0.79436 0,-0.36107 0.0722,-0.64993 0.14443,-0.36108 0.14443,-0.72215 0.0722,-0.57772 0.14443,-1.08323 0.0722,-0.5055 0.14443,-0.93879 0,-0.36108 0,-0.64994 0.0722,-0.28886 0.14443,-0.57772 -0.21665,0.14443 -0.57772,0.57772 -0.28886,0.43329 -0.72215,1.01101 -0.36107,0.50551 -0.72215,1.01101 -0.28886,0.50551 -0.36107,0.72215 0,0 -0.43329,0.57772 -0.36108,0.57772 -0.79437,1.29987 -0.43329,0.64993 -0.86658,1.22765 -0.36107,0.57772 -0.36107,0.57772 -0.36108,0.14443 -0.72215,0.36108 -0.36108,0.21664 -0.86658,0.0722 -0.64994,-0.14443 -1.01101,-0.21664 -0.28886,-0.0722 -0.72215,-0.64994 -0.72215,-1.01101 -1.22765,-1.80537 -0.50551,-0.79436 -0.64994,-1.87759 -0.14443,-0.86658 -0.21664,-1.66094 -0.0722,-0.86658 0.14443,-1.66095 0.43329,-1.58873 0.86658,-2.96081 0.43329,-1.37208 1.51651,-2.59974 0.5055,-0.64993 1.01101,-1.08322 0.5055,-0.43329 1.08322,-1.01101 0.86658,-0.72215 1.51652,-0.86658 0.64993,-0.14443 2.02202,0.21664 0.64993,0.21665 1.87758,0.57772 1.29987,0.28886 1.80538,0.86658 0.28886,0.36108 0.5055,0.86658 0.21665,0.50551 -0.5055,0.43329 -1.15544,-0.43329 -1.73316,-0.28886 -0.50551,0.14443 -1.87759,0.43329 -0.36107,0.14443 -0.64993,0.28886 -0.21665,0.14443 -0.36108,0.57772 0,0.14443 -0.36107,0.57772 -0.36108,0.43329 -0.50551,0.57772 -0.21664,0.28886 -0.72215,1.22765 -0.43329,0.9388 -0.86658,2.09424 -0.43329,1.08322 -0.79436,2.09423 -0.28886,1.01101 -0.14443,1.4443 0.86658,-0.64993 1.51651,-1.22765 0.64994,-0.57772 1.15544,-1.22766 0.50551,-0.64993 1.01101,-1.37208 0.50551,-0.72215 1.15544,-1.58873 0.28886,-0.36108 0.57772,-0.64994 0.36107,-0.36107 0.72215,-0.72214 0.57772,-0.57772 0.86658,-0.43329 0.28886,0.14443 1.22765,0.36107 0.64994,0.14443 0.86658,0.28886 0.21665,0.0722 0.28886,0.21665 0.14443,0.14443 0.28886,0.43328 0.14443,0.21665 0.57772,0.50551 0.50551,0.36107 0.50551,0.93879 0.0722,0.50551 0.14443,1.01101 -0.14443,0.14443 -0.14443,0.57772 0.0722,0.36108 -0.0722,0.79437 -0.14443,0.5055 -0.21664,1.22765 0,0.72215 -0.14443,1.37209 -0.14443,0.64993 -0.21665,1.29986 -0.0722,0.64994 -0.21664,1.22766 -0.0722,0.57772 -0.0722,1.15544 0,0.5055 -0.14443,0.86658 0.21665,-0.14443 0.57772,-0.72215 0.43329,-0.64994 0.86658,-1.66095 0.14443,-0.36107 0.28886,-0.79436 0.14443,-0.43329 0.28886,-0.86658 0.21665,-0.43329 0.43329,-0.86658 0.21664,-0.43329 0.36107,-0.86658 0.14443,-0.43329 0.36108,-0.79436 0.28886,-0.43329 0.43329,-0.86658 0.14443,-0.36108 0.28886,-0.72215 0.21664,-0.43329 0.36107,-0.79437 0.28886,-0.5055 0.36108,-0.86658 0.14443,-0.36107 0.28886,-0.5055 0.21664,-0.50551 0.28886,-0.86658 0.14443,-0.36107 0.28886,-0.72215 0,-0.0722 0,-0.0722 0.0722,0 0.0722,-0.0722 h 0.14443 q 0.14443,0 0.21665,0.14443 l 0.0722,-0.0722 0.14443,0.0722 q 0.14443,0 0.43329,0.14443 h 0.0722 l 0.0722,0.14443 z"
           inkscape:connector-curvature="0" />
      </g>
      <path
         d="m 273.58546,109.35797 a 41.425594,41.425594 0 0 1 -41.75203,40.98595 41.425594,41.425594 0 0 1 -41.09626,-41.64346 41.425594,41.425594 0 0 1 41.5346,-41.206277 41.425594,41.425594 0 0 1 41.31601,41.425447"
         sodipodi:open="true"
         sodipodi:end="0"
         sodipodi:start="0.010581617"
         sodipodi:ry="41.425594"
         sodipodi:rx="41.425594"
         sodipodi:cy="108.91963"
         sodipodi:cx="232.16219"
         sodipodi:type="arc"
         id="path10601"
         style="opacity:1;fill:url(#linearGradient10609);fill-opacity:1;stroke:none;stroke-width:13.21013451;stroke-linecap:round;stroke-miterlimit:4;stroke-dasharray:none;stroke-dashoffset:0;stroke-opacity:1" />
      <g
         id="text10599"
         style="font-style:normal;font-variant:normal;font-weight:normal;font-stretch:normal;font-size:36.23726273px;line-height:1000%;font-family:Playlist;-inkscape-font-specification:'Playlist, Normal';font-variant-ligatures:normal;font-variant-caps:normal;font-variant-numeric:normal;font-feature-settings:normal;text-align:center;letter-spacing:0px;word-spacing:0px;writing-mode:lr-tb;text-anchor:middle;fill:#ffffff;fill-opacity:1;stroke:none;stroke-width:0.60394907px;stroke-linecap:butt;stroke-linejoin:miter;stroke-opacity:1"
         transform="rotate(-11.778406)"
         aria-label="EP!">
        <path
           id="path844"
           style="font-style:normal;font-variant:normal;font-weight:normal;font-stretch:normal;font-size:36.23726273px;font-family:Playlist;-inkscape-font-specification:'Playlist, Normal';font-variant-ligatures:normal;font-variant-caps:normal;font-variant-numeric:normal;font-feature-settings:normal;text-align:center;writing-mode:lr-tb;text-anchor:middle;fill:#ffffff;stroke-width:0.60394907px"
           d="m 206.9063,137.92236 c -0.0362,-0.2899 -0.25366,-0.2899 -0.43485,-0.2899 -0.0362,0 -0.18118,0.14495 -0.2899,0.14495 -0.14494,0.0362 -0.39861,0.0362 -0.57979,0.0362 -1.59444,0.0362 -3.18888,0.2899 -4.74708,0.47109 -1.66692,0.21742 -3.33383,0.32613 -5.00075,0.50732 l -0.6885,0.10871 c 0,-0.14495 -0.0362,-0.25366 -0.10872,-0.36237 -0.25366,-0.25366 -0.3986,-0.50733 -0.6885,-0.72475 -0.50732,-0.36237 -1.34078,-0.72474 -1.95682,-0.50732 -0.86969,0.2899 -0.47108,1.15959 -0.94216,1.81186 -0.5798,0.8697 -2.64532,0.36238 -3.62373,0.72475 -0.43485,0.14495 -0.61603,0.36237 -0.65227,0.76098 -0.21742,1.66691 1.95681,1.88434 3.1164,1.70315 -0.25366,0.79722 -3.15264,9.56664 -3.18888,9.56664 0.0725,-0.10871 0.14495,-0.21742 0.18119,-0.32614 -0.10871,0.36238 -0.36237,1.34078 -0.54356,1.37702 0.0362,-0.0362 0.10871,-0.32614 0.10871,-0.32614 -0.0725,-0.0362 -0.10871,0.25367 -0.14495,0.25367 -0.18118,0.0362 -0.39861,0.14494 -0.61603,0.18118 -0.47108,0.0362 -1.08712,0 -1.5582,0.14495 0,0.0362 -0.0362,0.0362 -0.0725,0.0362 -1.34077,0.61603 0.21743,1.95681 1.19583,1.95681 -0.54356,1.2683 -0.79722,2.57285 -1.30454,3.84115 -0.21742,0.65227 -0.50732,1.2683 -0.76098,1.92057 l -0.39861,1.01465 c 0,0.0725 -0.14495,0.61603 -0.10871,0.65227 l -0.18119,0.54356 c 0.0362,-0.10871 0.14495,-0.47109 0.14495,-0.47109 -0.18119,0.0362 -0.50732,1.48573 -0.5798,1.66692 -0.32613,0.57979 -0.72474,1.05088 -0.79722,1.73939 -0.14494,1.66691 1.34078,3.00769 2.75404,3.58748 2.28294,0.94217 4.81955,-0.9784 6.55894,-2.28294 0.8697,-0.68851 1.63068,-1.41326 2.4279,-2.138 0.54356,-0.50732 1.23207,-1.19583 1.48573,-1.88434 0.28989,-0.76098 -0.0725,-0.90593 -0.72475,-0.57979 -1.37702,0.72474 -2.71779,1.5582 -4.09481,2.28294 -1.41325,0.76099 -3.08017,1.8481 -4.67461,2.138 -0.0362,-0.14495 0.10871,-0.5798 0,-0.68851 -0.10871,-0.10871 -0.25366,0.68851 -0.25366,0.5798 0.0362,-0.65227 0.36237,-1.23207 0.5798,-1.88434 0.32613,-0.94217 0.65227,-1.88434 1.01464,-2.8265 0.61604,-1.73939 1.23207,-3.44254 1.77563,-5.21817 l 0.43484,-1.34078 c 0.10872,-0.2899 0.2899,-1.2683 0.50733,-1.44949 0.39861,-0.2899 1.30454,-0.21742 1.77562,-0.2899 0.61604,-0.0725 0.8697,-0.36237 1.37702,-0.43485 0.68851,-0.10871 1.34078,-0.25366 2.02929,-0.32613 0.36237,-0.0725 0.94216,-0.10871 1.2683,-0.32614 0.32613,-0.14494 0.18119,-0.21742 0.47108,-0.28989 0.54356,-0.14495 1.30455,0 1.77563,-0.39861 0.2899,-0.25366 0.39861,-0.5798 -0.0362,-0.72475 -0.0725,-0.0362 -0.18118,0.14495 -0.2899,0.18119 h -0.47108 c -0.83346,0.0362 -1.63068,0.14495 -2.46413,0.25366 -1.55821,0.18118 -3.15265,0.2899 -4.74709,0.47108 0.21743,-0.61603 2.21048,-6.23281 2.97146,-8.08091 -0.32614,0.76099 -0.90593,2.24671 -1.34078,3.44254 0.32614,-0.94217 0.68851,-1.8481 1.05088,-2.79027 l 0.76098,-1.92057 c 0.0725,-0.21742 0.47109,-1.66692 0.68851,-1.70315 -0.0725,0.10871 -0.0725,0.18118 -0.0725,0.2899 0.0725,-0.0725 0.14495,-0.18119 0.14495,-0.2899 l 0.65227,-0.10871 c 0.36237,-0.10872 0.76098,-0.21743 1.12335,-0.2899 0.65227,-0.0725 1.34078,-0.0725 1.99305,-0.32614 0.25366,-0.0725 0.18119,-0.14495 0.54356,-0.25366 0.2899,-0.10871 0.61603,-0.10871 0.90593,-0.14495 0.72475,-0.10871 1.44949,-0.32613 2.17424,-0.47108 0.68851,-0.10871 1.41325,-0.2899 2.02929,-0.5798 0.0362,-0.0362 0.0725,-0.10871 0.0362,-0.18118 0.14495,-0.0725 0.25366,-0.0725 0.36238,0 0.28989,-0.10872 0.61603,-0.0725 0.94216,-0.14495 0.39861,-0.10872 1.8481,-0.32614 1.77563,-1.01465 z m -18.51724,12.90047 c -0.47109,1.12335 -0.97841,2.10176 -1.44949,3.18888 l 1.70315,-4.67461 c 0.2899,-0.94217 0.72474,-1.8481 1.08712,-2.79027 -0.43485,1.34078 -0.76099,2.93522 -1.34078,4.276 z m 1.77562,1.37701 c 0.0362,0.18119 -0.0362,0.2899 -0.14494,0.2899 l 0.47108,-1.15959 z m 3.18888,-8.26209 c 0,0.0362 -0.0362,0.10871 -0.0362,0.10871 0,-0.0362 0.0362,-0.0725 0.0362,-0.10871 z m 0,0 c 0.0362,-0.0362 0.0362,-0.0725 0.0725,-0.0725 -0.0362,0 -0.0362,0.0362 -0.0725,0.0725 z m -0.10871,0.21742 -0.10871,0.25366 z"
           inkscape:connector-curvature="0" />
        <path
           id="path846"
           style="font-style:normal;font-variant:normal;font-weight:normal;font-stretch:normal;font-size:36.23726273px;font-family:Playlist;-inkscape-font-specification:'Playlist, Normal';font-variant-ligatures:normal;font-variant-caps:normal;font-variant-numeric:normal;font-feature-settings:normal;text-align:center;writing-mode:lr-tb;text-anchor:middle;fill:#ffffff;stroke-width:0.60394907px"
           d="m 217.84989,137.05267 c -1.12336,0.32613 -2.24671,1.70315 -3.04393,2.50037 -0.50732,0.47108 -1.01464,0.97841 -1.48573,1.52196 -0.32613,0.36238 -1.15959,1.08712 -1.23207,1.59444 0.0362,0.0362 0.0362,0.0362 0.0725,0.0362 l -0.50732,0.65227 c -0.0362,0.0362 0.36237,-0.54356 0.36237,-0.54356 -0.18119,0.0362 -0.50732,0.72475 -0.50732,0.72475 -1.01464,1.30454 -2.138,2.50037 -3.08017,3.87739 -1.05088,1.5582 -1.92057,3.15264 -2.75403,4.81955 0.47108,-1.73939 1.08712,-3.44254 1.77563,-5.10945 0.18118,-0.43485 2.17423,-5.14569 2.24671,-5.10946 -0.10872,-0.0362 -1.88434,3.94987 -1.99305,4.16729 0.83345,-2.02929 1.73938,-4.02234 2.79027,-5.94291 -0.0725,0.14495 -0.14495,0.32613 -0.10872,0.32613 0.14495,0.0362 0.8697,-1.37701 0.76099,-1.41325 l -0.10872,0.0725 c 0.21743,-0.39861 0.32614,-0.61603 0.10872,-1.19583 -0.21743,-0.57979 -0.76099,-1.59443 -1.52197,-1.2683 -0.47108,0.18119 -0.86969,1.05088 -1.05088,1.41325 -0.10871,0.18119 -0.14495,0.47109 -0.25366,0.61604 -0.14495,0.21742 -0.39861,0.32613 -0.61603,0.61603 -0.47109,0.72475 -0.79722,1.59444 -1.12336,2.39166 -0.18119,0.43485 -2.17423,4.74708 -2.10176,4.78332 0.0725,-0.0362 0.10871,-0.10871 0.14495,-0.18119 -0.10871,0.32614 -0.25366,0.65227 -0.39861,0.97841 -0.0362,-0.0362 0.10871,-0.2899 0.0725,-0.2899 -0.36237,-0.0725 -1.44949,2.93522 -1.52196,3.22512 -0.14495,0.6885 -0.32614,1.30454 -0.61604,1.99305 -0.18118,0.43484 -0.36237,0.86969 -0.50732,1.30454 0,0.0362 -0.18118,0.94217 -0.0362,0.61603 0,0.10871 -0.0362,0.18119 -0.0725,0.2899 0,-0.0362 0,-0.10871 -0.0362,-0.14495 -0.0725,0.0362 -0.25366,1.01464 -0.28989,1.05088 -0.14495,0.36237 -0.36238,0.68851 -0.50733,1.05088 -0.47108,1.01464 -0.76098,2.138 -1.01464,3.22512 l -0.76098,3.6962 c -0.14495,0.68851 -0.72475,2.24671 -0.18119,2.93522 0,-0.0725 0,-0.10872 0.0362,-0.14495 0,0.0362 0,0.10871 0.0362,0.18118 0.32613,1.19583 2.28294,0.83346 2.93521,0.14495 0,0.0725 0.0362,0.10871 0.0725,0.14495 0.25366,-2.02928 0.97841,-4.09481 1.70315,-6.01538 0.2899,-0.83346 0.5798,-2.21048 1.15959,-2.86275 0.0362,-0.36237 0.21743,-0.47108 0.50732,-0.2899 0.21743,0.0362 0.47109,0.0725 0.68851,0.0725 0.21743,0.0362 0.50732,0.0362 0.76099,0 1.52196,-0.25366 3.15264,-1.26831 4.45718,-2.06552 0.50732,-0.2899 0.86969,-0.72475 1.34078,-0.97841 0.50732,-0.2899 1.01464,-0.43485 1.52196,-0.83346 1.37702,-1.05088 2.50037,-2.24671 3.58749,-3.58749 1.08712,-1.30454 2.02929,-2.64532 2.68156,-4.23976 0.36237,-0.79722 0.65227,-1.66691 0.90593,-2.53661 0.0725,-0.32613 0.32614,-0.79721 0.25366,-1.12335 0,0 -0.10871,0.25366 -0.18118,0.43485 0.10871,-0.61604 0.18118,-1.19583 0.14494,-1.8481 0.0362,0.14495 0.10872,0.36237 0.0725,0.39861 0.0725,-0.0362 0.0362,-0.50733 0.0362,-0.72475 0,0.0725 -0.0362,-0.25366 0,-0.14495 -0.14495,-1.73939 -1.73939,-3.80491 -3.62373,-3.26135 z m -0.0362,4.42094 c -0.0362,0.14495 -0.0362,0.10872 0,0.0362 -0.18118,2.50037 -1.59444,4.96451 -3.00769,6.95756 -0.72475,1.05088 -1.5582,2.02928 -2.4279,2.97145 -0.39861,0.39861 -0.83345,0.79722 -1.2683,1.15959 -0.32614,0.32614 -1.01464,0.68851 -1.34078,1.08712 0.2899,-0.2899 0.94217,-0.65227 1.23207,-0.86969 0.57979,-0.50732 1.15959,-1.08712 1.70315,-1.63068 0.86969,-0.94217 1.70315,-1.92057 2.42789,-2.97145 -2.21047,3.29759 -5.2544,6.16033 -8.91436,7.6823 0.2899,-0.18119 1.01464,-0.54356 1.01464,-0.5798 -0.0725,-0.0725 -1.52196,0.5798 -1.66691,0.65227 0.47108,-0.94217 0.94217,-1.88434 1.44949,-2.82651 0.14495,-0.21742 1.30454,-2.42789 1.30454,-2.42789 -0.0725,0 -0.14495,0.0362 -0.18119,0.14495 1.59444,-2.57285 3.6962,-5.1457 5.65302,-7.50112 0.61603,-0.72474 4.20352,-5.39935 4.02233,-1.92057 z m -17.82873,18.73467 c 0.36237,-1.5582 1.12335,-2.60908 1.59444,-4.02234 -0.65227,2.10176 -1.44949,4.23976 -2.06553,6.30529 0.14495,-0.72475 0.2899,-1.63068 0.47109,-2.28295 z m -0.72475,4.63837 c -0.0362,0.14495 -0.28989,0.32613 -0.32613,0.50732 0.10871,-0.61603 0.21742,-1.15959 0.36237,-1.73939 -0.0725,0.39861 0.0362,0.83346 -0.0362,1.23207 z m 7.9722,-17.46636 -0.76098,1.88434 0.72474,-1.8481 z m 0.0362,-0.14495 c 0,0.0725 -0.0362,0.0725 -0.0362,0.10871 0,-0.0362 0,-0.0362 0.0362,-0.10871 z m 0.0725,-0.14495 -0.0362,0.0362 0.0362,-0.0725 z m 0.47109,4.276 c 0,-0.0362 0.0362,-0.0362 0.0362,-0.0725 0,0.0362 -0.0362,0.0725 -0.0362,0.0725 z"
           inkscape:connector-curvature="0" />
        <path
           id="path848"
           style="font-style:normal;font-variant:normal;font-weight:normal;font-stretch:normal;font-size:36.23726273px;font-family:Playlist;-inkscape-font-specification:'Playlist, Normal';font-variant-ligatures:normal;font-variant-caps:normal;font-variant-numeric:normal;font-feature-settings:normal;text-align:center;writing-mode:lr-tb;text-anchor:middle;fill:#ffffff;stroke-width:0.60394907px"
           d="m 229.11965,139.77046 v -0.0362 c -0.18119,-1.52197 -2.46414,-1.88434 -3.51502,-0.97841 -0.54356,0.47108 -0.47108,0.94217 -0.47108,1.52196 -0.0362,1.01465 -0.36237,2.06553 -0.50732,3.08017 -0.72475,3.94986 -1.5582,7.89973 -2.50037,11.77711 -0.21743,0.90593 -0.54356,1.77563 -0.76099,2.68156 -0.14495,0.68851 -0.79722,2.53661 -0.21742,3.1164 0.90593,0.94217 1.73939,-2.06552 1.95681,-2.60908 1.08712,-3.00769 1.81187,-6.1241 2.82651,-9.13179 0.61603,-1.8481 1.19583,-3.6962 1.88434,-5.50806 0.36237,-0.94217 0.76098,-1.88434 1.08711,-2.82651 0.10872,-0.36237 0.18119,-0.68851 0.21743,-1.08712 z m -6.77637,24.24273 c 0,-0.25366 0.21742,-0.57979 0,-0.86969 -0.18119,-0.21743 -0.18119,-0.0725 -0.36237,-0.10871 -0.72475,-0.2899 -1.41326,-0.10872 -2.06553,0.21742 -0.83345,0.43485 -2.17423,1.92057 -1.66691,3.00769 0.14495,0.2899 0.79722,0.8697 1.05088,0.97841 0.68851,0.36237 1.05088,-0.10871 1.48573,-0.50732 0.50732,-0.47109 0.86969,-0.65227 1.12335,-1.23207 0.0725,-0.14495 0.94217,-1.48573 0.43485,-1.48573 z m 2.68156,-16.66914 v 0.0362 c -0.0725,1.08712 -0.25366,2.10176 -0.47109,3.18888 -0.18118,0.9784 -0.76098,1.88434 -1.01464,2.79027 0.14495,-0.5798 0.32614,-0.97841 0.39861,-1.66692 0.0725,-0.72474 0.2899,-1.48573 0.54356,-2.21047 0.21742,-0.68851 0.39861,-1.41325 0.54356,-2.138 z m -1.52197,6.16034 c 0,-0.0362 0,-0.0725 0.0362,-0.14495 -0.0362,0.0725 -0.0362,0.10871 -0.0362,0.14495 z"
           inkscape:connector-curvature="0" />
      </g>
    </g>
    <rect
       style="opacity:0;fill:#ff0000;fill-opacity:1;stroke:none;stroke-width:10.89999962;stroke-linecap:round;stroke-miterlimit:4;stroke-dasharray:none;stroke-dashoffset:0;stroke-opacity:1"
       id="rect1056"
       width="678.08929"
       height="83.910713"
       x="0"
       y="210.82143" />
    <rect
       style="opacity:0;fill:#ff0000;fill-opacity:1;stroke:none;stroke-width:10.89999962;stroke-linecap:round;stroke-miterlimit:4;stroke-dasharray:none;stroke-dashoffset:0;stroke-opacity:1"
       id="rect1058"
       width="112.6369"
       height="102.05357"
       x="20.410715"
       y="-7.6488242" />
    <rect
       style="opacity:0;fill:#ff8c00;fill-opacity:1;stroke:none;stroke-width:10.89999962;stroke-linecap:round;stroke-miterlimit:4;stroke-dasharray:none;stroke-dashoffset:0;stroke-opacity:1"
       id="rect1060"
       width="678.08929"
       height="83.910721"
       x="0"
       y="210.82143" />
    <rect
       style="opacity:0;fill:#008c00;fill-opacity:1;stroke:none;stroke-width:10.89999962;stroke-linecap:round;stroke-miterlimit:4;stroke-dasharray:none;stroke-dashoffset:0;stroke-opacity:1"
       id="rect1070"
       width="41.577381"
       height="50.648811"
       x="11.339286"
       y="-31.839304" />
    <rect
       style="opacity:0;fill:#008c00;fill-opacity:1;stroke:none;stroke-width:10.89999962;stroke-linecap:round;stroke-miterlimit:4;stroke-dasharray:none;stroke-dashoffset:0;stroke-opacity:1"
       id="rect1074"
       width="367.39285"
       height="218.47023"
       x="-89.202377"
       y="-61.321445" />
    <rect
       style="opacity:0;fill:#008c00;fill-opacity:1;stroke:none;stroke-width:10.89999962;stroke-linecap:round;stroke-miterlimit:4;stroke-dasharray:none;stroke-dashoffset:0;stroke-opacity:1"
       id="rect1085"
       width="156.48209"
       height="133.04759"
       x="-68.035713"
       y="-20.500013" />
  </g>
</svg>
